<?xml version="1.0" standalone="no"?>
<!DOCTYPE svg PUBLIC "-//W3C//DTD SVG 20010904//EN"
 "http://www.w3.org/TR/2001/REC-SVG-20010904/DTD/svg10.dtd">
<svg version="1.0" xmlns="http://www.w3.org/2000/svg"
 width="700.000000pt" height="700.000000pt" viewBox="0 0 700.000000 700.000000"
 preserveAspectRatio="xMidYMid meet">
<metadata>
Created by potrace 1.11, written by Peter Selinger 2001-2013
</metadata>
<g transform="translate(0.000000,700.000000) scale(0.100000,-0.100000)"
fill="#000000" stroke="none">
<path d="M2771 6511 c-96 -20 -122 -41 -116 -93 3 -17 9 -36 14 -41 6 -6 6
-19 1 -33 -11 -28 -5 -36 81 -91 l64 -42 76 22 c42 12 95 35 118 50 26 17 49
26 61 22 29 -9 80 -73 108 -135 32 -71 61 -112 163 -237 120 -145 145 -190
163 -298 23 -129 21 -120 81 -350 30 -115 56 -221 59 -235 3 -14 19 -76 36
-139 17 -63 32 -124 34 -135 3 -12 12 -57 21 -101 18 -92 19 -279 1 -373 -10
-58 -14 -63 -71 -107 -128 -98 -179 -140 -248 -204 -43 -39 -95 -134 -112
-204 -20 -80 -49 -152 -98 -247 -123 -234 -256 -513 -272 -566 -10 -34 -29
-74 -42 -88 -46 -50 -147 -106 -308 -171 -188 -76 -211 -95 -485 -394 -139
-152 -187 -197 -223 -211 -17 -6 -42 -16 -54 -20 -33 -14 -47 -41 -109 -220
-54 -157 -57 -170 -59 -270 -3 -154 19 -208 108 -272 27 -19 29 -19 48 -2 32
29 78 135 85 194 18 176 74 288 214 434 98 101 155 143 351 259 252 148 257
151 433 172 48 6 99 26 121 49 20 19 124 93 262 184 72 48 162 115 200 149
183 165 195 173 210 150 4 -7 6 -35 5 -64 -2 -57 -2 -58 72 -106 68 -44 82
-67 122 -198 48 -156 49 -161 59 -249 4 -36 20 -128 36 -205 37 -172 38 -178
44 -240 15 -136 41 -227 117 -395 39 -85 77 -173 85 -195 105 -288 105 -287
103 -370 -3 -117 -3 -157 -1 -182 2 -29 46 -43 136 -43 93 0 154 -19 238 -75
38 -25 70 -45 72 -45 2 0 23 -13 47 -28 24 -15 54 -33 68 -39 28 -11 148 -11
167 0 29 18 -33 101 -219 288 -147 147 -225 242 -254 308 -57 128 -102 244
-108 277 -5 24 -14 71 -31 154 -3 14 -10 49 -16 79 -6 30 -31 120 -56 200 -44
139 -46 152 -46 271 -1 184 15 538 26 595 18 84 22 145 22 305 0 155 -8 327
-19 415 -7 57 -19 250 -20 340 l-2 89 60 91 c32 49 85 146 117 213 l59 124 45
-6 c24 -4 50 -9 57 -11 27 -9 76 -15 168 -21 162 -10 228 -20 250 -37 8 -7 32
-33 53 -59 21 -27 45 -48 54 -48 19 0 118 101 139 142 13 26 14 38 5 69 -19
63 -94 96 -261 114 -69 8 -78 10 -170 46 -144 57 -191 88 -225 149 -74 133
-92 213 -65 285 6 17 13 63 15 102 4 66 1 78 -30 140 -44 86 -96 155 -212 281
-163 175 -170 186 -193 283 -23 97 -25 151 -9 181 22 41 28 77 15 90 -6 7 -23
29 -36 48 -13 19 -27 37 -30 40 -4 3 -20 30 -37 60 -58 106 -74 129 -91 128
-9 0 -84 3 -166 7 l-149 7 -181 89 c-158 77 -325 139 -374 139 -9 0 -49 16
-88 36 -87 43 -159 50 -283 25z"/>
</g>
</svg>
