<?xml version="1.0" encoding="UTF-8" standalone="no"?>
<!-- Created with Inkscape (http://www.inkscape.org/) -->

<svg
   xmlns:dc="http://purl.org/dc/elements/1.1/"
   xmlns:cc="http://creativecommons.org/ns#"
   xmlns:rdf="http://www.w3.org/1999/02/22-rdf-syntax-ns#"
   xmlns:svg="http://www.w3.org/2000/svg"
   xmlns="http://www.w3.org/2000/svg"
   xmlns:sodipodi="http://sodipodi.sourceforge.net/DTD/sodipodi-0.dtd"
   xmlns:inkscape="http://www.inkscape.org/namespaces/inkscape"
   width="250"
   height="250"
   viewBox="0 0 250 249.99999"
   id="svg2"
   version="1.1"
   inkscape:version="0.91 r"
   sodipodi:docname="boomtown-icon.svg">
  <defs
     id="defs4" />
  <sodipodi:namedview
     id="base"
     pagecolor="#ffffff"
     bordercolor="#666666"
     borderopacity="1.0"
     inkscape:pageopacity="0.0"
     inkscape:pageshadow="2"
     inkscape:zoom="0.58"
     inkscape:cx="512.40917"
     inkscape:cy="215.90184"
     inkscape:document-units="px"
     inkscape:current-layer="layer1"
     showgrid="false"
     fit-margin-top="0"
     fit-margin-left="0"
     fit-margin-right="0"
     fit-margin-bottom="0"
     units="px"
     inkscape:window-width="1366"
     inkscape:window-height="744"
     inkscape:window-x="0"
     inkscape:window-y="24"
     inkscape:window-maximized="1" />
  <metadata
     id="metadata7">
    <rdf:RDF>
      <cc:Work
         rdf:about="">
        <dc:format>image/svg+xml</dc:format>
        <dc:type
           rdf:resource="http://purl.org/dc/dcmitype/StillImage" />
        <dc:title></dc:title>
      </cc:Work>
    </rdf:RDF>
  </metadata>
  <g
     inkscape:label="Layer 1"
     inkscape:groupmode="layer"
     id="layer1"
     transform="translate(223.57144,-370.60447)">
    <path
       style="fill:#000000"
       d="m -49.380384,603.26313 c -0.66,-0.29787 -2.955,-1.73622 -5.1,-3.19632 -4.53525,-3.08712 -5.55252,-3.43356 -10.08213,-3.43356 -4.19334,0 -4.63125,-0.29094 -4.58811,-3.04818 0.0165,-1.04601 0.13368,-3.04932 0.2607,-4.45182 l 0.23094,-2.55 -2.14494,-6.3 c -1.41171,-4.14636 -2.95455,-7.94085 -4.51332,-11.1 -2.87853,-5.83395 -3.79179,-8.67002 -4.22142,-13.10897 -0.34512,-3.56578 -1.46979,-9.55445 -2.27067,-12.09103 -0.26049,-0.825 -0.58509,-2.985 -0.72132,-4.8 -0.19803,-2.6382 -0.53079,-4.20245 -1.65927,-7.8 -0.77637,-2.475 -1.53579,-4.93456 -1.68756,-5.46568 -0.40572,-1.41972 -1.67937,-2.77429 -3.23364,-3.43908 -0.75309,-0.32211 -1.68336,-0.87982 -2.06727,-1.23936 -0.64074,-0.60008 -0.68181,-0.8153 -0.50031,-2.62257 0.162,-1.61302 0.11007,-2.04157 -0.28722,-2.37129 -0.72831,-0.60446 -1.36191,-0.1546 -6.10785,4.33653 -2.901866,2.74609 -5.029226,4.47445 -6.856856,5.57082 -5.06979,3.04126 -8.36139,5.27659 -10.24344,6.95631 -2.16873,1.93562 -2.86614,2.20655 -6.27369,2.43729 -4.02849,0.27279 -7.11603,1.48988 -11.93499,4.70476 -1.15632,0.7714 -3.24882,1.97478 -4.65,2.67416 -4.95738,2.47439 -10.88994,7.66757 -13.79256,12.07354 -2.66904,4.05139 -3.6552,6.6434 -3.92688,10.32123 -0.24993,3.38307 -0.97875,5.33205 -2.78784,7.45506 l -1.01553,1.19172 -1.2558,-0.87024 c -1.49205,-1.03401 -2.67081,-2.37381 -3.17889,-3.6132 -0.20292,-0.495 -0.45201,-2.655 -0.55347,-4.8 -0.15981,-3.37774 -0.10908,-4.10087 0.37875,-5.4 0.30981,-0.825 0.99606,-2.85 1.52505,-4.5 2.5632,-7.99536 2.93595,-8.70392 4.74753,-9.02442 2.26356,-0.40046 3.07497,-1.10486 9.77538,-8.48603 9.80841,-10.80497 10.29294,-11.21 15.70503,-13.12748 4.57776,-1.62189 10.2081,-4.54089 11.80299,-6.11916 1.23018,-1.21737 1.43844,-1.63151 2.02257,-4.02194 0.52776,-2.15962 1.40292,-4.09205 4.61631,-10.1929 6.76233,-12.83889 7.65879,-14.79732 8.32977,-18.19756 0.44205,-2.24011 1.80003,-5.03437 3.20736,-6.59965 1.72248,-1.9158 7.124756,-6.47792 9.459026,-7.98794 1.12893,-0.73031 2.24538,-1.62373 2.48097,-1.98538 0.56208,-0.86279 1.12461,-8.34427 0.88917,-11.82556 -0.18417,-2.723 -2.08965,-11.09911 -3.87465,-17.03197 -0.54606,-1.815 -1.09158,-4.11 -1.21224,-5.1 -0.12066,-0.99 -0.73584,-3.3525 -1.36707,-5.25 -1.0626,-3.19433 -1.90797,-7.07976 -2.62749,-12.07652 -0.24615,-1.70941 -0.5508,-2.41356 -1.946996,-4.5 -0.91035,-1.36042 -2.77857,-3.73747 -4.15164,-5.28235 -3.29493,-3.70723 -4.31835,-5.20449 -5.04558,-7.38165 -0.65355,-1.95651 -2.51223,-4.39137 -3.90006,-5.10905 -0.79272,-0.40992 -0.90303,-0.38249 -1.99497,0.49617 -1.44723,1.16454 -2.46393,1.60021 -5.17137,2.216 l -2.14548,0.48798 -1.41951,-0.82263 c -2.95359,-1.71166 -3.96951,-2.53892 -3.96951,-3.23237 0,-0.37157 0.14073,-0.8163 0.31272,-0.9883 0.21696,-0.21695 0.171,-0.43031 -0.15,-0.69673 -0.68745,-0.57053 -0.64017,-3.49881 0.0623,-3.85759 1.46223,-0.74684 5.76417,-1.61288 8.00661,-1.61184 2.61459,10e-4 4.08438,0.43947 6.50145,1.93861 0.94572,0.58656 2.07444,0.95362 3.56946,1.1608 3.14145,0.43534 6.5802,1.76692 12.878666,4.98698 l 5.53119,2.82779 3.31881,0.12105 c 6.37326,0.23244 8.53878,0.36967 8.84787,0.56071 0.17127,0.10584 1.06962,1.67479 1.99635,3.48655 0.97305,1.90228 2.30601,3.97362 3.1548,4.90232 1.63284,1.7866 1.74453,2.26976 0.85998,3.72061 -0.77889,1.27756 -1.05969,3.33559 -0.62517,4.58207 0.18708,0.53663 0.47898,1.84494 0.64872,2.90737 0.16971,1.06242 0.58041,2.46448 0.91263,3.11569 0.33222,0.65121 2.47056,3.12477 4.75185,5.49679 4.79955,4.99039 7.33365,8.23021 8.87178,11.34236 0.94209,1.9062 1.09128,2.49526 1.08564,4.28612 -0.004,1.23252 -0.25473,2.86797 -0.61725,4.02463 -1.00866,3.21839 -0.86754,4.25332 1.1538,8.46013 1.68546,3.50782 1.85061,3.73554 3.375,4.65379 1.92819,1.16149 6.47109,3.15881 8.66985,3.81178 0.87552,0.26 2.24379,0.47272 3.04059,0.47272 1.99272,0 6.82941,1.1007 7.74237,1.76195 1.33194,0.96472 2.16714,2.47334 1.98858,3.59198 -0.30471,1.90904 -4.42023,6.47059 -5.6742,6.2892 -0.35406,-0.0512 -0.94719,-0.56563 -1.31808,-1.14313 -2.22372,-3.46271 -2.48352,-3.56432 -10.10292,-3.95172 -4.54314,-0.23099 -6.45039,-0.44889 -7.68297,-0.87777 -1.93239,-0.67237 -2.81412,-0.71849 -3.26853,-0.17096 -0.18237,0.21975 -0.79896,1.55885 -1.37019,2.97578 -1.57188,3.89901 -2.63481,5.85399 -4.6119,8.48237 -0.98973,1.31577 -1.94217,2.91653 -2.1165,3.55726 -0.36009,1.32333 0.18576,11.57616 1.06398,19.98504 0.28431,2.7225 0.52275,7.4475 0.52983,10.5 0.0111,4.74293 -0.0819,5.92082 -0.63897,8.1 -0.52164,2.0406 -0.7314,4.258 -1.05,11.1 -0.21897,4.7025 -0.39813,10.3725 -0.39813,12.6 0,3.9797 0.0219,4.11308 1.25931,7.68378 1.63206,4.70926 2.65638,8.79198 3.54867,14.14416 0.61368,3.68085 0.95052,4.83897 2.27478,7.82133 0.85491,1.9254 1.67646,3.94056 1.82559,4.47816 0.48717,1.75593 3.77058,6.24795 6.44709,8.82027 7.97331,7.6629 11.2938,11.47512 11.13582,12.78483 -0.089,0.738 -0.15726,0.75873 -2.79126,0.84771 -2.10534,0.0711 -2.9643,-0.0279 -3.9,-0.45036 z"
       id="path6435"
       inkscape:connector-curvature="0" />
  </g>
</svg>
