<?xml version="1.0" encoding="UTF-8" standalone="no"?>
<!-- Created with Inkscape (http://www.inkscape.org/) -->

<svg
   xmlns:dc="http://purl.org/dc/elements/1.1/"
   xmlns:cc="http://creativecommons.org/ns#"
   xmlns:rdf="http://www.w3.org/1999/02/22-rdf-syntax-ns#"
   xmlns:svg="http://www.w3.org/2000/svg"
   xmlns="http://www.w3.org/2000/svg"
   xmlns:sodipodi="http://sodipodi.sourceforge.net/DTD/sodipodi-0.dtd"
   xmlns:inkscape="http://www.inkscape.org/namespaces/inkscape"
   id="svg2"
   version="1.1"
   inkscape:version="0.91 r"
   xml:space="preserve"
   width="336"
   height="336"
   viewBox="0 0 336 336"
   sodipodi:docname="kendra-scott-logo.svg"><metadata
     id="metadata8"><rdf:RDF><cc:Work
         rdf:about=""><dc:format>image/svg+xml</dc:format><dc:type
           rdf:resource="http://purl.org/dc/dcmitype/StillImage" /><dc:title></dc:title></cc:Work></rdf:RDF></metadata><defs
     id="defs6"><clipPath
       clipPathUnits="userSpaceOnUse"
       id="clipPath16"><path
         d="m 0,67.648 268.462,0 L 268.462,0 0,0 0,67.648 Z"
         id="path18"
         inkscape:connector-curvature="0" /></clipPath></defs><sodipodi:namedview
     pagecolor="#ffffff"
     bordercolor="#666666"
     borderopacity="1"
     objecttolerance="10"
     gridtolerance="10"
     guidetolerance="10"
     inkscape:pageopacity="0"
     inkscape:pageshadow="2"
     inkscape:window-width="767"
     inkscape:window-height="480"
     id="namedview4"
     showgrid="false"
     inkscape:zoom="1.3886508"
     inkscape:cx="139.70394"
     inkscape:cy="128.69512"
     inkscape:window-x="0"
     inkscape:window-y="24"
     inkscape:window-maximized="0"
     inkscape:current-layer="g12" /><g
     id="g10"
     inkscape:groupmode="layer"
     inkscape:label="KS-2016-Horizontal-PMS-605-Logo"
     transform="matrix(1.25,0,0,-1.25,0,336)"><g
       id="g12"><g
         id="g14"
         clip-path="url(#clipPath16)"
         transform="translate(0.15135,100.4534)"><g
           id="g20"
           transform="translate(51.2447,33.9316)"><path
             d="m 0,0 c 0,-0.846 -1.794,-0.556 -1.998,-3.819 -0.153,-2.43 -1.923,-4.213 -4.65,-4.998 0.024,0.361 0.039,0.73 0.039,1.117 0,3.038 -1.277,5.773 -3.315,7.715 2.038,1.943 3.315,4.677 3.315,7.716 0,0.384 -0.015,0.754 -0.039,1.113 2.727,-0.785 4.497,-2.568 4.65,-4.996 C -1.794,0.584 0,0.874 0,0.027 L 0,0 Z m -13.457,-15.282 c -3.264,-0.204 -2.974,-1.999 -3.82,-1.999 l -0.028,0 c -0.846,0 -0.555,1.795 -3.818,1.999 -2.429,0.153 -4.212,1.923 -4.997,4.651 0.357,-0.024 0.724,-0.038 1.108,-0.038 3.038,0 5.774,1.277 7.716,3.318 1.942,-2.041 4.678,-3.318 7.718,-3.318 0.387,0 0.757,0.015 1.117,0.039 -0.784,-2.729 -2.567,-4.499 -4.996,-4.652 m -19.136,11.463 c -0.205,3.263 -1.999,2.973 -1.999,3.819 l 0,0.027 c 0,0.847 1.794,0.557 1.999,3.821 0.152,2.431 1.927,4.216 4.66,5 -0.024,-0.361 -0.039,-0.732 -0.039,-1.117 0,-3.039 1.276,-5.773 3.314,-7.716 -2.038,-1.942 -3.314,-4.677 -3.314,-7.715 0,-0.388 0.015,-0.759 0.039,-1.12 -2.733,0.784 -4.508,2.568 -4.66,5.001 m 18.135,2.366 c 0.065,0.475 0.11,0.956 0.11,1.45 l 0,0.034 c 0,0.493 -0.046,0.976 -0.111,1.453 0.956,-0.34 1.856,-0.843 2.664,-1.469 -0.808,-0.626 -1.706,-1.13 -2.663,-1.468 m -4.301,-1.372 c 0.476,-0.065 0.958,-0.111 1.452,-0.111 l 0.033,0 c 0.49,0 0.969,0.045 1.44,0.108 -0.337,-0.952 -0.839,-1.845 -1.462,-2.651 -0.623,0.807 -1.124,1.701 -1.463,2.654 m -1.375,4.305 c -0.065,-0.475 -0.11,-0.957 -0.11,-1.449 l 0,-0.034 c 0,-0.492 0.045,-0.972 0.11,-1.446 -0.952,0.339 -1.847,0.84 -2.652,1.464 0.805,0.624 1.7,1.125 2.652,1.465 m 2.86,1.486 -0.033,0 c -0.493,0 -0.975,-0.045 -1.451,-0.11 0.339,0.951 0.839,1.845 1.462,2.651 0.622,-0.805 1.124,-1.699 1.462,-2.65 -0.473,0.064 -0.951,0.109 -1.44,0.109 m 1.944,-2.924 0,-0.028 0,-0.028 c 0,-0.592 -0.069,-1.177 -0.194,-1.748 -0.568,-0.123 -1.15,-0.19 -1.739,-0.19 l -0.027,0 -0.028,0 c -0.592,0 -1.178,0.067 -1.751,0.192 -0.124,0.571 -0.191,1.155 -0.191,1.746 l 0,0.028 0,0.028 c 0,0.591 0.067,1.176 0.192,1.748 0.572,0.125 1.158,0.193 1.75,0.193 l 0.028,0 0.027,0 c 0.588,0 1.171,-0.068 1.739,-0.191 0.125,-0.573 0.194,-1.158 0.194,-1.75 m -11.238,7.255 c 0,0.652 0.049,1.273 0.131,1.865 0.591,0.082 1.208,0.13 1.857,0.13 2.442,0 4.772,-1.126 6.485,-2.861 -0.841,-1.117 -1.465,-2.402 -1.816,-3.799 -1.397,-0.351 -2.682,-0.975 -3.8,-1.817 -1.732,1.712 -2.857,4.042 -2.857,6.482 m 0,-14.565 c 0,2.441 1.125,4.771 2.857,6.483 1.118,-0.842 2.403,-1.466 3.8,-1.817 0.351,-1.399 0.974,-2.684 1.816,-3.802 -1.713,-1.734 -4.043,-2.86 -6.485,-2.86 -0.649,0 -1.266,0.047 -1.856,0.13 -0.083,0.592 -0.132,1.213 -0.132,1.866 m 18.554,0 c 0,-0.652 -0.048,-1.273 -0.131,-1.865 -0.593,-0.084 -1.214,-0.131 -1.866,-0.131 -2.442,0 -4.773,1.126 -6.486,2.86 0.841,1.117 1.465,2.402 1.816,3.799 1.402,0.35 2.69,0.976 3.81,1.82 1.733,-1.712 2.857,-4.042 2.857,-6.483 m 0,14.565 c 0,-2.44 -1.124,-4.77 -2.857,-6.482 -1.12,0.844 -2.409,1.469 -3.811,1.82 -0.351,1.396 -0.974,2.68 -1.815,3.796 1.713,1.735 4.044,2.861 6.486,2.861 0.652,0 1.273,-0.048 1.867,-0.131 0.082,-0.593 0.13,-1.213 0.13,-1.864 m -13.109,8.015 c 3.263,0.204 2.972,1.998 3.818,1.998 l 0.028,0 c 0.846,0 0.556,-1.794 3.82,-1.998 2.429,-0.153 4.213,-1.924 4.998,-4.654 -0.362,0.023 -0.732,0.039 -1.119,0.039 -3.04,0 -5.776,-1.278 -7.718,-3.318 -1.942,2.04 -4.678,3.318 -7.716,3.318 -0.384,0 -0.751,-0.015 -1.109,-0.039 0.786,2.73 2.569,4.501 4.998,4.654 M 0.552,4.592 c -1.412,2.928 -3.581,5.16 -7.399,5.867 -0.704,3.819 -2.938,5.99 -5.866,7.403 -3.585,1.729 -3.547,2.653 -4.577,2.653 -1.031,0 -0.993,-0.924 -4.579,-2.653 -2.927,-1.413 -5.16,-3.583 -5.865,-7.402 -3.824,-0.703 -5.996,-2.938 -7.409,-5.868 -1.73,-3.586 -2.653,-3.548 -2.653,-4.578 0,-1.031 0.923,-0.992 2.653,-4.578 1.413,-2.93 3.585,-5.165 7.409,-5.869 0.706,-3.818 2.938,-5.987 5.865,-7.399 3.586,-1.73 3.548,-2.653 4.579,-2.653 1.03,0 0.992,0.923 4.577,2.653 2.928,1.412 5.16,3.582 5.866,7.401 3.818,0.706 5.987,2.939 7.399,5.867 1.729,3.586 2.652,3.547 2.652,4.578 0,1.03 -0.923,0.992 -2.652,4.578"
             style="fill:#dac600;fill-opacity:1;fill-rule:nonzero;stroke:none"
             id="path22"
             inkscape:connector-curvature="0" /></g><g
           id="g24"
           transform="translate(67.226,37.3224)"><path
             d="m 0,0 c 0,2.066 -0.039,2.38 -1.181,2.479 l -0.492,0.04 c -0.118,0.078 -0.078,0.432 0.04,0.491 0.964,-0.039 1.594,-0.059 2.479,-0.059 0.767,0 1.436,0.02 2.283,0.059 C 3.247,2.951 3.286,2.597 3.168,2.519 L 2.794,2.479 C 1.653,2.361 1.613,2.066 1.613,0 l 0,-2.263 c 0,-0.374 0.04,-0.748 0.256,-0.748 0.177,0 0.413,0.118 0.551,0.216 0.276,0.237 0.787,0.748 1.004,0.945 L 5.549,0.255 C 5.923,0.61 6.887,1.613 7.084,1.889 7.182,2.026 7.221,2.125 7.221,2.204 7.221,2.282 7.143,2.341 6.887,2.4 L 6.355,2.519 C 6.218,2.656 6.238,2.912 6.395,3.01 7.084,2.971 7.871,2.951 8.559,2.951 c 0.689,0 1.358,0.02 1.948,0.059 0.138,-0.098 0.158,-0.374 0.04,-0.491 C 10.035,2.479 9.268,2.282 8.717,1.967 8.166,1.652 7.064,0.728 5.962,-0.315 L 4.191,-1.988 C 3.916,-2.263 3.739,-2.44 3.739,-2.597 c 0,-0.139 0.118,-0.296 0.373,-0.61 1.87,-2.145 3.385,-3.916 4.92,-5.53 0.472,-0.472 0.905,-0.728 1.574,-0.807 l 0.531,-0.059 c 0.138,-0.098 0.099,-0.432 -0.039,-0.491 -0.512,0.039 -1.279,0.059 -2.204,0.059 -0.807,0 -1.496,-0.02 -2.401,-0.059 -0.138,0.039 -0.196,0.374 -0.078,0.491 l 0.452,0.079 c 0.276,0.04 0.472,0.099 0.472,0.197 0,0.118 -0.137,0.276 -0.275,0.452 -0.374,0.473 -0.886,1.004 -1.633,1.85 l -1.574,1.771 c -1.122,1.259 -1.437,1.653 -1.909,1.653 -0.295,0 -0.335,-0.256 -0.335,-0.945 l 0,-2.538 c 0,-2.066 0.04,-2.341 1.142,-2.46 l 0.531,-0.059 c 0.118,-0.078 0.079,-0.432 -0.039,-0.491 -0.965,0.039 -1.634,0.059 -2.401,0.059 -0.807,0 -1.476,-0.02 -2.282,-0.059 -0.118,0.059 -0.158,0.354 -0.04,0.491 l 0.394,0.059 C -0.039,-9.386 0,-9.15 0,-7.084 L 0,0 Z"
             style="fill:#231f20;fill-opacity:1;fill-rule:nonzero;stroke:none"
             id="path26"
             inkscape:connector-curvature="0" /></g><g
           id="g28"
           transform="translate(84.5386,37.3224)"><path
             d="m 0,0 c 0,2.046 -0.039,2.341 -1.2,2.479 l -0.315,0.04 C -1.633,2.597 -1.594,2.951 -1.476,3.01 -0.63,2.971 0.039,2.951 0.846,2.951 l 3.699,0 c 1.26,0 2.421,0 2.657,0.059 C 7.32,2.676 7.438,1.259 7.517,0.393 7.438,0.275 7.123,0.236 7.025,0.354 6.729,1.279 6.552,1.967 5.529,2.223 5.116,2.321 4.486,2.341 3.62,2.341 l -1.416,0 C 1.613,2.341 1.613,2.302 1.613,1.554 l 0,-3.935 c 0,-0.551 0.06,-0.551 0.65,-0.551 l 1.141,0 c 0.827,0 1.436,0.039 1.673,0.118 0.236,0.078 0.374,0.197 0.472,0.689 l 0.157,0.806 c 0.099,0.119 0.433,0.119 0.512,-0.019 0,-0.473 -0.079,-1.24 -0.079,-1.988 0,-0.708 0.079,-1.456 0.079,-1.889 C 6.139,-5.352 5.805,-5.352 5.706,-5.234 l -0.177,0.767 c -0.078,0.354 -0.216,0.649 -0.61,0.748 -0.275,0.079 -0.748,0.098 -1.515,0.098 l -1.141,0 c -0.59,0 -0.65,-0.019 -0.65,-0.531 l 0,-2.775 c 0,-1.042 0.06,-1.711 0.374,-2.046 0.236,-0.236 0.65,-0.452 2.381,-0.452 1.515,0 2.086,0.078 2.519,0.295 0.354,0.196 0.885,0.885 1.397,1.908 0.138,0.099 0.413,0.039 0.492,-0.137 -0.138,-0.689 -0.63,-2.204 -0.886,-2.735 -1.77,0.039 -3.522,0.059 -5.273,0.059 l -1.771,0 c -0.846,0 -1.515,-0.02 -2.676,-0.059 -0.118,0.059 -0.157,0.374 -0.039,0.491 l 0.649,0.059 C -0.098,-9.445 0,-9.15 0,-7.084 L 0,0 Z"
             style="fill:#231f20;fill-opacity:1;fill-rule:nonzero;stroke:none"
             id="path30"
             inkscape:connector-curvature="0" /></g><g
           id="g32"
           transform="translate(111.1389,30.632)"><path
             d="M 0,0 C 0,-0.59 0,-2.932 0.059,-3.444 0.02,-3.562 -0.098,-3.66 -0.315,-3.66 c -0.236,0.335 -0.807,1.023 -2.518,2.971 l -4.565,5.195 c -0.532,0.61 -1.87,2.223 -2.283,2.656 l -0.039,0 C -9.799,6.926 -9.819,6.473 -9.819,5.883 l 0,-4.289 c 0,-0.925 0.02,-3.483 0.355,-4.074 0.118,-0.216 0.511,-0.334 1.003,-0.373 l 0.61,-0.059 c 0.118,-0.158 0.099,-0.394 -0.039,-0.492 -0.886,0.039 -1.574,0.059 -2.303,0.059 -0.826,0 -1.357,-0.02 -2.046,-0.059 -0.138,0.098 -0.157,0.374 -0.039,0.492 l 0.531,0.059 c 0.453,0.059 0.768,0.177 0.866,0.393 0.275,0.708 0.256,3.109 0.256,4.054 l 0,5.687 c 0,0.55 -0.02,0.964 -0.433,1.416 -0.276,0.276 -0.748,0.413 -1.22,0.472 l -0.335,0.04 c -0.118,0.118 -0.118,0.413 0.04,0.492 0.826,-0.059 1.869,-0.059 2.223,-0.059 0.315,0 0.649,0.019 0.905,0.059 C -9.051,8.697 -6.729,6.1 -6.08,5.372 L -4.171,3.227 C -2.814,1.712 -1.85,0.61 -0.925,-0.335 l 0.04,0 c 0.078,0.099 0.078,0.414 0.078,0.827 l 0,4.21 c 0,0.926 -0.02,3.483 -0.393,4.074 -0.118,0.177 -0.433,0.295 -1.22,0.393 l -0.335,0.04 c -0.138,0.118 -0.118,0.433 0.04,0.492 0.905,-0.04 1.574,-0.059 2.322,-0.059 0.846,0 1.357,0.019 2.026,0.059 C 1.791,9.602 1.791,9.327 1.673,9.209 L 1.397,9.169 C 0.767,9.071 0.374,8.914 0.295,8.756 -0.039,8.048 0,5.608 0,4.702 L 0,0 Z"
             style="fill:#231f20;fill-opacity:1;fill-rule:nonzero;stroke:none"
             id="path34"
             inkscape:connector-curvature="0" /></g><g
           id="g36"
           transform="translate(121.0132,30.691)"><path
             d="m 0,0 c 0,-1.043 0.059,-1.672 0.394,-2.145 0.433,-0.61 1.18,-0.806 2.42,-0.806 3.817,0 5.529,2.498 5.529,6.158 C 8.343,5.372 7.3,9.032 2.145,9.032 0.984,9.032 0.354,8.874 0.197,8.756 0.039,8.638 0,8.146 0,7.261 L 0,0 Z m -1.613,7.025 c 0,1.377 -0.099,1.79 -0.925,1.908 l -0.433,0.06 c -0.157,0.098 -0.177,0.412 0.02,0.491 1.672,0.099 3.266,0.158 4.939,0.158 1.652,0 3.049,-0.119 4.328,-0.591 2.657,-0.964 3.995,-3.207 3.995,-5.804 0,-2.499 -1.201,-4.644 -3.444,-5.864 -1.279,-0.688 -2.892,-0.945 -4.407,-0.945 -1.26,0 -2.519,0.158 -3.207,0.158 -0.827,0 -1.535,-0.02 -2.46,-0.059 -0.118,0.059 -0.158,0.374 -0.04,0.492 l 0.453,0.059 c 1.141,0.157 1.181,0.393 1.181,2.459 l 0,7.478 z"
             style="fill:#231f20;fill-opacity:1;fill-rule:nonzero;stroke:none"
             id="path38"
             inkscape:connector-curvature="0" /></g><g
           id="g40"
           transform="translate(139.5061,34.4888)"><path
             d="m 0,0 c 0,-0.354 0,-0.571 0.059,-0.649 0.059,-0.06 0.354,-0.099 1.358,-0.099 0.708,0 1.456,0.079 2.026,0.512 0.532,0.413 0.984,1.102 0.984,2.44 0,1.554 -0.964,3.03 -3.148,3.03 C 0.059,5.234 0,5.155 0,4.604 L 0,0 Z m -1.613,2.814 c 0,1.869 -0.059,2.203 -0.866,2.302 l -0.63,0.079 c -0.138,0.098 -0.138,0.413 0.02,0.491 1.102,0.099 2.459,0.158 4.388,0.158 1.22,0 2.381,-0.099 3.286,-0.59 0.944,-0.492 1.633,-1.378 1.633,-2.755 0,-1.87 -1.476,-2.893 -2.46,-3.286 -0.098,-0.118 0,-0.315 0.099,-0.472 1.574,-2.539 2.617,-4.113 3.955,-5.235 0.334,-0.295 0.826,-0.511 1.358,-0.55 0.098,-0.04 0.118,-0.197 0.019,-0.276 -0.177,-0.059 -0.492,-0.098 -0.866,-0.098 -1.672,0 -2.676,0.491 -4.073,2.479 -0.511,0.728 -1.318,2.086 -1.928,2.971 -0.295,0.433 -0.61,0.63 -1.397,0.63 C 0.039,-1.338 0,-1.358 0,-1.771 L 0,-4.25 C 0,-6.316 0.039,-6.553 1.181,-6.71 L 1.594,-6.769 C 1.712,-6.868 1.673,-7.202 1.554,-7.261 0.669,-7.222 0,-7.202 -0.787,-7.202 c -0.826,0 -1.535,-0.02 -2.46,-0.059 -0.118,0.059 -0.157,0.354 -0.039,0.492 l 0.492,0.059 c 1.141,0.138 1.181,0.394 1.181,2.46 l 0,7.064 z"
             style="fill:#231f20;fill-opacity:1;fill-rule:nonzero;stroke:none"
             id="path42"
             inkscape:connector-curvature="0" /></g><g
           id="g44"
           transform="translate(156.1103,33.6033)"><path
             d="m 0,0 c -0.157,-0.453 -0.138,-0.472 0.413,-0.472 l 2.42,0 c 0.571,0 0.61,0.078 0.433,0.61 L 2.204,3.345 C 2.046,3.817 1.869,4.348 1.751,4.585 l -0.039,0 C 1.652,4.486 1.456,4.014 1.239,3.424 L 0,0 Z m 3.896,-1.752 c -0.138,0.434 -0.217,0.493 -0.807,0.493 l -2.971,0 c -0.492,0 -0.61,-0.059 -0.748,-0.473 l -0.688,-2.066 c -0.295,-0.885 -0.433,-1.417 -0.433,-1.633 0,-0.236 0.098,-0.354 0.57,-0.394 l 0.65,-0.059 c 0.138,-0.098 0.138,-0.413 -0.04,-0.491 -0.511,0.039 -1.121,0.039 -2.046,0.059 -0.649,0 -1.358,-0.039 -1.889,-0.059 -0.118,0.078 -0.157,0.393 -0.039,0.491 l 0.649,0.059 c 0.472,0.04 0.905,0.256 1.181,0.964 0.354,0.906 0.905,2.185 1.731,4.389 L 1.023,4.84 C 1.298,5.549 1.417,5.923 1.357,6.238 1.83,6.375 2.165,6.729 2.381,6.985 2.499,6.985 2.636,6.946 2.676,6.808 2.932,5.943 3.247,5.037 3.542,4.171 l 2.696,-7.91 c 0.57,-1.692 0.826,-1.987 1.672,-2.086 l 0.531,-0.059 c 0.138,-0.098 0.098,-0.413 0,-0.491 -0.806,0.039 -1.495,0.059 -2.381,0.059 -0.944,0 -1.692,-0.039 -2.263,-0.059 -0.157,0.078 -0.177,0.393 -0.039,0.491 l 0.571,0.059 c 0.413,0.04 0.688,0.158 0.688,0.355 0,0.216 -0.098,0.57 -0.256,1.043 l -0.865,2.675 z"
             style="fill:#231f20;fill-opacity:1;fill-rule:nonzero;stroke:none"
             id="path46"
             inkscape:connector-curvature="0" /></g><g
           id="g48"
           transform="translate(180.6627,26.9719)"><path
             d="m 0,0 c -1.653,0 -2.696,0.512 -3.07,0.728 -0.236,0.433 -0.492,1.83 -0.531,2.755 0.098,0.137 0.394,0.177 0.472,0.059 0.295,-1.004 1.102,-2.932 3.384,-2.932 1.654,0 2.46,1.082 2.46,2.263 0,0.866 -0.177,1.83 -1.613,2.755 l -1.87,1.22 c -0.984,0.649 -2.125,1.771 -2.125,3.384 0,1.869 1.456,3.384 4.015,3.384 0.609,0 1.318,-0.118 1.829,-0.255 0.256,-0.079 0.532,-0.119 0.689,-0.119 0.177,-0.472 0.354,-1.573 0.354,-2.4 -0.078,-0.118 -0.393,-0.177 -0.492,-0.059 -0.255,0.945 -0.787,2.224 -2.675,2.224 -1.929,0 -2.342,-1.279 -2.342,-2.185 0,-1.141 0.944,-1.967 1.672,-2.42 L 1.731,7.418 C 2.971,6.651 4.191,5.51 4.191,3.64 4.191,1.476 2.558,0 0,0"
             style="fill:#231f20;fill-opacity:1;fill-rule:nonzero;stroke:none"
             id="path50"
             inkscape:connector-curvature="0" /></g><g
           id="g52"
           transform="translate(192.9585,38.9159)"><path
             d="M 0,0 C 1.436,1.122 3.266,1.672 5.313,1.672 6.375,1.672 7.87,1.456 8.795,1.2 9.032,1.141 9.169,1.102 9.346,1.122 9.366,0.669 9.464,-0.57 9.622,-1.771 9.523,-1.909 9.228,-1.928 9.091,-1.811 8.795,-0.472 7.91,1.063 5.057,1.063 c -3.011,0 -5.569,-1.909 -5.569,-5.982 0,-4.132 2.617,-6.415 5.844,-6.415 2.538,0 3.66,1.653 4.113,2.814 0.137,0.099 0.432,0.059 0.511,-0.079 -0.138,-1.023 -0.649,-2.322 -0.944,-2.696 -0.236,-0.039 -0.473,-0.118 -0.689,-0.196 -0.433,-0.158 -1.85,-0.453 -3.109,-0.453 -1.771,0 -3.463,0.354 -4.9,1.318 -1.573,1.083 -2.794,2.874 -2.794,5.411 0,2.185 0.984,4.054 2.48,5.215"
             style="fill:#231f20;fill-opacity:1;fill-rule:nonzero;stroke:none"
             id="path54"
             inkscape:connector-curvature="0" /></g><g
           id="g56"
           transform="translate(219.8142,33.2294)"><path
             d="m 0,0 c 0,3.247 -1.437,6.749 -5.195,6.749 -2.046,0 -4.703,-1.397 -4.703,-5.706 0,-2.912 1.417,-6.69 5.294,-6.69 C -2.243,-5.647 0,-3.877 0,0 m -11.865,0.413 c 0,3.935 2.951,6.946 7.004,6.946 4.546,0 6.828,-3.286 6.828,-6.749 0,-3.975 -3.03,-6.867 -6.828,-6.867 -4.368,0 -7.004,3.128 -7.004,6.67"
             style="fill:#231f20;fill-opacity:1;fill-rule:nonzero;stroke:none"
             id="path58"
             inkscape:connector-curvature="0" /></g><g
           id="g60"
           transform="translate(233.0725,30.2383)"><path
             d="m 0,0 c 0,-2.066 0.04,-2.361 1.181,-2.46 l 0.63,-0.059 c 0.117,-0.078 0.078,-0.432 -0.04,-0.491 -1.122,0.039 -1.79,0.059 -2.578,0.059 -0.787,0 -1.475,-0.02 -2.735,-0.059 -0.118,0.059 -0.157,0.393 0,0.491 l 0.709,0.059 c 1.121,0.099 1.22,0.394 1.22,2.46 l 0,8.795 c 0,0.611 0,0.63 -0.591,0.63 l -1.082,0 c -0.846,0 -1.928,-0.039 -2.42,-0.491 C -6.178,8.5 -6.375,8.067 -6.592,7.576 -6.749,7.457 -7.025,7.556 -7.103,7.713 c 0.315,0.886 0.61,2.145 0.748,2.932 0.058,0.04 0.314,0.059 0.373,0 0.118,-0.629 0.768,-0.61 1.673,-0.61 l 7.969,0 c 1.063,0 1.24,0.04 1.535,0.551 0.098,0.04 0.315,0.02 0.354,-0.059 C 5.332,9.72 5.195,8.126 5.254,7.536 5.175,7.379 4.841,7.379 4.742,7.497 4.683,7.989 4.546,8.717 4.25,8.934 3.798,9.268 3.05,9.425 1.968,9.425 l -1.397,0 C -0.019,9.425 0,9.406 0,8.756 L 0,0 Z"
             style="fill:#231f20;fill-opacity:1;fill-rule:nonzero;stroke:none"
             id="path62"
             inkscape:connector-curvature="0" /></g><g
           id="g64"
           transform="translate(249.4996,30.2383)"><path
             d="m 0,0 c 0,-2.066 0.04,-2.361 1.181,-2.46 l 0.63,-0.059 c 0.117,-0.078 0.078,-0.432 -0.04,-0.491 -1.122,0.039 -1.79,0.059 -2.578,0.059 -0.787,0 -1.475,-0.02 -2.735,-0.059 -0.118,0.059 -0.157,0.393 0,0.491 l 0.709,0.059 c 1.121,0.099 1.22,0.394 1.22,2.46 l 0,8.795 c 0,0.611 0,0.63 -0.591,0.63 l -1.082,0 c -0.846,0 -1.928,-0.039 -2.42,-0.491 C -6.178,8.5 -6.375,8.067 -6.592,7.576 -6.749,7.457 -7.025,7.556 -7.103,7.713 c 0.315,0.886 0.61,2.145 0.748,2.932 0.058,0.04 0.314,0.059 0.373,0 0.118,-0.629 0.768,-0.61 1.673,-0.61 l 7.969,0 c 1.063,0 1.24,0.04 1.535,0.551 0.098,0.04 0.315,0.02 0.354,-0.059 C 5.332,9.72 5.195,8.126 5.254,7.536 5.175,7.379 4.841,7.379 4.742,7.497 4.683,7.989 4.546,8.717 4.25,8.934 3.798,9.268 3.05,9.425 1.968,9.425 l -1.397,0 C -0.019,9.425 0,9.406 0,8.756 L 0,0 Z"
             style="fill:#231f20;fill-opacity:1;fill-rule:nonzero;stroke:none"
             id="path66"
             inkscape:connector-curvature="0" /></g></g></g></g></svg>