<?xml version="1.0" encoding="UTF-8" standalone="no"?>
<svg
   xmlns:dc="http://purl.org/dc/elements/1.1/"
   xmlns:cc="http://creativecommons.org/ns#"
   xmlns:rdf="http://www.w3.org/1999/02/22-rdf-syntax-ns#"
   xmlns:svg="http://www.w3.org/2000/svg"
   xmlns="http://www.w3.org/2000/svg"
   xmlns:sodipodi="http://sodipodi.sourceforge.net/DTD/sodipodi-0.dtd"
   xmlns:inkscape="http://www.inkscape.org/namespaces/inkscape"
   version="1.0"
   width="1024"
   height="1024"
   viewBox="0 0 10240 10240"
   preserveAspectRatio="xMidYMid meet"
   id="svg2"
   inkscape:version="0.91 r"
   sodipodi:docname="whataburger-logo.svg">
  <metadata
     id="metadata193">
    <rdf:RDF>
      <cc:Work
         rdf:about="">
        <dc:format>image/svg+xml</dc:format>
        <dc:type
           rdf:resource="http://purl.org/dc/dcmitype/StillImage" />
        <dc:title></dc:title>
      </cc:Work>
    </rdf:RDF>
  </metadata>
  <defs
     id="defs191" />
  <sodipodi:namedview
     pagecolor="#ffffff"
     bordercolor="#666666"
     borderopacity="1"
     objecttolerance="10"
     gridtolerance="10"
     guidetolerance="10"
     inkscape:pageopacity="0"
     inkscape:pageshadow="2"
     inkscape:window-width="767"
     inkscape:window-height="480"
     id="namedview189"
     showgrid="false"
     inkscape:zoom="0.29003906"
     inkscape:cx="495.74603"
     inkscape:cy="494.56037"
     inkscape:window-x="10"
     inkscape:window-y="34"
     inkscape:window-maximized="0"
     inkscape:current-layer="svg2" />
  <!-- generated by www.vectorizer.io -->
  <g
     id="layer1"
     style="fill:#928578;stroke:none"
     transform="translate(-27.948665,2955.2766)">
    <path
       d="m 5535,3120 c -3,-5 2,-13 12,-18 10,-6 17,-23 18,-39 0,-15 4,-34 8,-41 11,-16 28,-5 20,13 -3,8 -1,15 5,15 5,0 12,-9 15,-21 3,-12 10,-18 17,-14 6,4 9,12 7,18 -2,7 0,19 4,29 14,26 -21,60 -64,63 -20,2 -39,-1 -42,-5 z"
       id="path5"
       inkscape:connector-curvature="0" />
    <path
       d="m 4852,3093 c -5,-10 -7,-25 -5,-33 3,-8 -4,-5 -14,8 -16,19 -21,21 -30,10 -14,-17 -10,-52 7,-73 12,-14 16,-13 44,14 21,21 31,40 30,58 -1,32 -19,41 -32,16 z"
       id="path7"
       inkscape:connector-curvature="0" />
    <path
       d="m 4896,3091 c -10,-15 45,-52 67,-45 16,5 18,3 9,-12 -16,-28 3,-57 28,-44 11,6 20,7 20,2 0,-6 -9,-12 -21,-15 -16,-4 -19,-10 -14,-29 8,-27 34,-50 47,-42 5,3 15,-2 23,-12 12,-17 14,-18 20,-2 10,25 -13,62 -29,49 -10,-8 -17,-7 -26,4 -10,12 -10,15 3,15 9,0 19,5 22,10 9,14 -29,73 -67,105 -30,25 -31,25 -51,8 -11,-10 -17,-13 -14,-6 9,14 -9,28 -17,14 z"
       id="path9"
       inkscape:connector-curvature="0" />
    <path
       d="m 5646,3023 c -3,-3 -6,-17 -6,-30 0,-22 -1,-23 -24,-8 -17,11 -26,13 -31,5 -5,-8 -11,-5 -20,7 -13,17 -14,17 -21,0 -7,-19 0,-32 19,-32 7,-1 11,-7 9,-14 -2,-8 0,-21 3,-29 4,-12 9,-12 30,2 23,15 25,15 35,-4 17,-32 30,-13 30,45 0,51 -9,73 -24,58 z"
       id="path11"
       inkscape:connector-curvature="0" />
    <path
       d="m 5395,3000 c -8,-12 20,-24 35,-15 6,3 8,11 5,16 -8,12 -32,12 -40,-1 z"
       id="path13"
       inkscape:connector-curvature="0" />
    <path
       d="m 5855,3001 c -7,-13 17,-24 40,-19 9,1 16,8 16,13 0,14 -48,19 -56,6 z"
       id="path15"
       inkscape:connector-curvature="0" />
    <path
       d="m 6075,3000 c -3,-5 0,-13 9,-16 21,-8 71,-1 71,11 0,14 -72,19 -80,5 z"
       id="path17"
       inkscape:connector-curvature="0" />
    <path
       d="m 6315,3000 c -3,-5 0,-13 8,-16 23,-8 82,0 82,11 0,14 -82,19 -90,5 z"
       id="path19"
       inkscape:connector-curvature="0" />
    <path
       d="m 5534,2936 c -8,-21 3,-49 16,-41 5,3 10,15 10,25 0,25 -18,36 -26,16 z"
       id="path21"
       inkscape:connector-curvature="0" />
    <path
       d="m 5897,2918 c -17,-9 -17,-11 -1,-36 9,-15 13,-24 9,-20 -11,10 -47,-11 -40,-23 4,-5 11,-6 17,-3 6,4 0,-7 -13,-25 l -23,-31 21,-22 c 18,-17 25,-19 36,-9 8,6 21,10 28,9 10,-2 13,5 11,22 -5,31 -5,28 -3,68 1,29 4,32 30,32 33,0 61,-30 61,-66 0,-31 26,-50 38,-28 5,10 14,14 21,9 9,-5 8,-11 -3,-24 -11,-12 -13,-20 -5,-28 8,-8 8,-13 0,-17 -6,-4 -11,-1 -11,7 0,8 -9,22 -19,31 -19,17 -20,17 -35,-11 -8,-16 -22,-35 -30,-43 -12,-10 -14,-16 -5,-26 12,-14 10,-15 -31,-18 -8,-1 -16,-11 -18,-24 -2,-12 -7,-20 -12,-17 -9,6 -42,-47 -39,-62 1,-4 -1,-16 -6,-26 -4,-10 -5,-44 -3,-76 9,-126 105,-241 200,-241 32,0 47,7 74,34 29,29 34,41 34,80 0,59 -21,110 -55,132 -20,13 -31,15 -44,7 -17,-12 -18,-23 -2,-97 15,-68 6,-98 -28,-94 -36,4 -62,61 -70,156 -7,87 3,114 70,188 38,43 64,84 53,84 -3,0 -1,6 5,14 9,11 9,20 2,35 -7,12 -7,22 -2,26 27,16 -21,99 -74,128 -27,14 -116,18 -138,5 z m 85,-303 c 0,-5 -5,-11 -11,-13 -6,-2 -11,4 -11,13 0,9 5,15 11,13 6,-2 11,-8 11,-13 z"
       id="path23"
       inkscape:connector-curvature="0" />
    <path
       d="m 2916,2911 c -8,-13 32,-31 52,-23 8,3 12,-1 11,-9 -2,-8 17,-34 41,-59 25,-25 50,-54 56,-65 10,-19 12,-18 27,12 17,31 17,32 -13,53 -17,12 -28,25 -25,30 7,12 -73,61 -110,67 -19,3 -35,1 -39,-6 z"
       id="path25"
       inkscape:connector-curvature="0" />
    <path
       d="m 2872,2897 c -7,-8 -8,-18 -4,-22 4,-5 -1,-5 -10,-2 -23,8 -31,-6 -33,-67 -3,-57 6,-80 36,-97 29,-15 56,-4 39,16 -10,12 -10,18 0,30 7,8 10,26 8,40 -4,20 2,31 26,50 l 30,24 -24,9 c -14,5 -28,8 -33,5 -4,-2 -6,1 -5,8 4,17 -17,22 -30,6 z m 18,-48 c 0,-4 -4,-10 -9,-13 -4,-3 -6,-16 -4,-29 3,-14 -2,-29 -13,-38 -16,-12 -17,-12 -9,1 12,19 14,50 4,56 -12,7 0,31 16,31 8,0 15,-4 15,-8 z"
       id="path27"
       inkscape:connector-curvature="0" />
    <path
       d="m 3691,2896 c -7,-8 -8,-17 -3,-20 6,-3 15,1 21,8 7,8 8,17 3,20 -6,3 -15,-1 -21,-8 z"
       id="path29"
       inkscape:connector-curvature="0" />
    <path
       d="m 3759,2903 c -1,-5 -1,-12 0,-16 1,-5 -3,-6 -9,-2 -5,3 -13,-1 -16,-9 -3,-9 -10,-14 -14,-11 -14,9 -28,-19 -26,-52 2,-46 18,-58 41,-33 25,27 35,25 35,-8 0,-15 6,-34 13,-41 10,-10 9,-11 -5,-6 -9,4 -18,16 -21,27 -3,11 -10,17 -16,13 -16,-10 -13,-21 15,-54 17,-20 24,-40 22,-58 -2,-19 1,-27 11,-25 16,3 10,-20 -7,-26 -7,-2 -11,0 -10,5 3,11 -49,66 -54,56 -3,-4 -5,-21 -6,-37 -1,-16 -10,-38 -19,-48 -13,-15 -14,-23 -5,-43 6,-14 20,-25 30,-25 15,0 17,-6 14,-35 -2,-19 -1,-43 3,-52 6,-15 9,-70 6,-100 -1,-4 -6,-2 -13,5 -29,29 -98,1 -98,-39 0,-28 21,-38 71,-32 44,5 47,4 51,-18 2,-18 12,-26 41,-33 45,-12 73,1 70,32 -2,19 3,20 107,17 123,-2 142,6 122,50 -11,24 -14,25 -127,25 l -115,0 0,24 c 0,14 -4,27 -8,30 -5,3 -7,19 -4,36 3,19 -1,37 -11,48 -12,13 -13,20 -4,32 16,20 72,25 192,17 41,-2 54,1 73,20 20,20 22,30 18,88 -3,36 -8,70 -12,77 -6,10 -8,39 -5,93 2,37 61,-9 61,-48 0,-8 9,-22 20,-32 18,-16 18,-20 5,-52 -9,-21 -12,-48 -9,-67 3,-17 7,-40 8,-51 1,-25 50,-44 74,-28 18,11 20,32 8,98 l -7,40 18,-40 c 30,-66 50,-99 72,-119 18,-16 25,-17 46,-8 25,12 34,45 15,57 -5,3 -7,12 -4,20 3,8 3,19 -1,26 -4,6 -9,35 -11,63 l -3,51 23,-58 c 39,-94 64,-124 81,-97 5,8 11,8 20,0 9,-7 15,-7 22,2 12,16 9,51 -10,152 -15,77 -14,106 3,106 5,0 12,-5 15,-10 3,-6 18,-8 33,-5 26,5 26,5 3,-5 -18,-8 -21,-13 -12,-24 6,-7 8,-16 5,-19 -4,-3 -4,-13 0,-22 9,-24 49,0 41,24 -3,10 1,24 10,31 8,7 15,9 15,4 0,-5 7,-1 15,10 19,25 42,14 52,-24 10,-37 29,-40 26,-4 -1,20 2,24 20,22 12,-2 27,-7 33,-11 7,-4 19,4 28,18 9,14 21,23 27,19 5,-3 16,0 25,6 11,10 11,16 3,26 -6,8 -15,12 -19,9 -5,-3 -11,-2 -14,3 -9,14 -80,6 -90,-11 -9,-14 -13,-14 -36,3 -29,20 -79,21 -104,1 -12,-10 -19,-11 -30,-2 -8,7 -33,13 -56,14 -41,3 -69,-14 -74,-45 -1,-7 -5,-19 -10,-26 -4,-7 -5,-23 -2,-36 5,-19 0,-17 -34,15 -38,36 -57,65 -26,40 22,-19 30,6 12,34 -20,31 -61,33 -76,5 -6,-11 -8,-25 -5,-30 3,-5 1,-11 -5,-15 -15,-10 -12,-45 5,-51 13,-5 13,-9 3,-21 -10,-13 -15,-8 -28,31 -8,25 -18,45 -22,43 -4,-1 -15,8 -23,20 -23,32 -53,47 -69,34 -7,-6 -16,-8 -19,-5 -14,14 -68,13 -73,0 -7,-17 -43,-17 -64,-1 -8,7 -33,11 -54,11 -47,-1 -76,-33 -81,-92 -4,-50 1,-57 28,-42 12,7 25,12 30,13 4,0 6,5 5,10 -1,6 -8,9 -15,7 -7,-2 -13,4 -13,13 0,18 5,19 30,5 24,-13 37,5 19,26 -10,12 -9,13 7,8 10,-4 24,-10 29,-14 6,-4 18,-6 28,-5 21,4 22,-3 1,-26 -9,-10 -13,-23 -8,-30 11,-19 12,-72 1,-87 -7,-8 -6,-21 2,-38 15,-33 14,-44 -3,-44 -15,0 -43,65 -48,110 -4,36 -22,31 -26,-7 -4,-42 -28,-43 -37,-3 -7,34 -23,48 -30,28 -9,-22 18,-93 35,-93 8,0 15,-6 14,-12 -3,-37 -5,-43 -14,-43 -5,0 -9,6 -7,13 1,7 -12,13 -35,15 -21,2 -39,9 -39,15 -4,32 -7,69 -13,147 -5,52 -13,89 -21,95 -9,8 -10,16 -3,29 11,19 4,46 -12,46 -5,0 -11,-3 -11,-7 z m 428,-123 c 1,-11 -2,-20 -7,-20 -10,0 -20,26 -13,34 12,11 19,6 20,-14 z m 184,-51 c 8,-15 8,-19 0,-15 -6,4 -14,1 -17,-7 -6,-18 -34,-18 -34,0 0,8 8,13 18,11 11,-2 16,3 14,15 -4,23 5,22 19,-4 z m 119,-48 c 0,-32 -27,-48 -47,-27 -4,5 -3,6 4,2 15,-8 27,12 16,27 -5,7 -10,23 -11,37 l -1,25 20,-24 c 10,-13 19,-31 19,-40 z m -266,-19 c -19,-40 -39,-54 -29,-21 8,25 35,62 42,56 2,-2 -4,-18 -13,-35 z m 116,-24 c 0,-5 -8,0 -18,10 -11,9 -17,21 -14,25 4,8 31,-22 32,-35 z m 7,-45 c 2,-6 -2,-13 -10,-16 -8,-3 -13,3 -14,15 -2,20 18,21 24,1 z"
       id="path31"
       inkscape:connector-curvature="0" />
    <path
       d="m 5006,2891 c -4,-6 -2,-19 5,-27 16,-19 4,-30 -16,-14 -29,24 -81,19 -109,-11 -20,-21 -23,-30 -14,-36 19,-11 37,-12 44,-2 7,12 24,11 24,-2 0,-5 -4,-8 -9,-4 -5,3 -12,1 -16,-4 -3,-6 3,-15 14,-20 15,-9 22,-6 34,12 14,22 15,22 26,-18 7,-22 16,-67 21,-100 10,-68 36,-98 79,-93 25,3 26,5 25,74 -1,93 -7,108 -34,94 l -21,-11 21,-28 c 17,-24 18,-31 6,-40 -10,-8 -16,-9 -21,-1 -3,6 -11,7 -17,4 -6,-4 -9,5 -8,22 1,16 1,31 0,34 -1,3 -3,21 -5,40 -4,28 -3,32 6,17 9,-15 13,-16 26,-5 9,7 19,11 22,8 12,-10 12,41 1,55 -6,8 -9,19 -6,24 9,14 -7,21 -24,11 -9,-5 -19,-1 -30,13 -12,14 -19,17 -24,8 z m 58,-67 c 8,-21 8,-21 -8,-21 -8,0 -14,9 -13,19 2,22 13,24 21,2 z"
       id="path33"
       inkscape:connector-curvature="0" />
    <path
       d="m 5617,2873 c -15,-7 -25,-18 -22,-23 13,-21 -7,-31 -26,-14 -21,19 -23,16 -33,-46 -4,-25 -1,-43 11,-59 16,-23 15,-25 -7,-43 -26,-21 -46,-7 -28,21 13,22 -12,78 -55,119 -41,40 -93,49 -108,20 -6,-10 -14,-16 -20,-12 -5,3 -16,0 -25,-6 -19,-17 1,-43 27,-35 14,5 19,1 19,-14 0,-26 -37,-24 -44,2 -8,31 -29,8 -22,-24 3,-15 1,-31 -5,-35 -7,-4 -6,-11 2,-20 6,-7 9,-20 6,-28 -11,-27 24,-105 57,-130 50,-37 93,-51 111,-36 8,7 15,9 15,5 0,-4 7,-2 15,5 8,7 13,16 10,20 -3,4 2,11 11,14 8,3 13,10 9,15 -3,5 -1,12 5,16 5,3 10,14 10,25 0,10 6,20 13,23 8,3 13,-9 15,-36 1,-23 7,-47 13,-54 6,-6 8,-16 5,-21 -6,-11 21,-183 35,-220 12,-32 55,-50 75,-31 19,20 30,105 15,123 -6,7 -8,15 -6,18 3,3 0,18 -6,34 -7,16 -14,37 -16,47 -2,10 -8,28 -15,40 -6,12 -12,38 -12,57 -1,22 -6,34 -13,33 -15,-3 -17,13 -3,22 18,11 11,54 -10,65 -28,15 -43,4 -30,-20 8,-15 7,-18 -3,-15 -7,3 -13,14 -14,25 -2,19 3,22 37,24 10,1 16,14 18,38 5,59 36,59 66,1 9,-18 19,-33 21,-33 3,0 12,11 21,25 15,23 15,26 -5,53 -11,16 -35,40 -54,54 -30,24 -35,25 -60,11 z m -189,-94 c 20,-40 11,-77 -25,-100 l -33,-21 0,50 c 0,92 28,127 58,71 z"
       id="path35"
       inkscape:connector-curvature="0" />
    <path
       d="m 6202,2870 c -17,-10 -36,-28 -42,-40 -13,-25 -4,-46 14,-31 9,8 13,7 13,-3 0,-7 -10,-13 -21,-12 -12,1 -21,-5 -21,-14 0,-9 11,-14 30,-15 16,0 30,5 30,10 0,6 4,16 8,23 5,6 5,18 1,25 -5,9 -4,9 5,1 10,-10 9,-19 -4,-48 -10,-20 -21,-34 -25,-31 -11,7 -52,-45 -47,-59 3,-6 9,-10 15,-9 8,2 9,-5 2,-22 -11,-29 7,-80 39,-109 12,-11 21,-16 21,-13 0,4 9,-2 20,-13 26,-26 51,-25 85,2 22,17 30,19 33,9 7,-21 40,-51 57,-51 21,0 38,37 33,72 -5,33 13,48 35,29 7,-6 29,-12 48,-13 33,-3 34,-2 33,34 -1,20 -5,44 -9,55 -5,10 -7,25 -6,32 2,8 -5,20 -14,27 -10,8 -12,14 -6,19 6,3 11,21 11,40 0,46 18,54 46,20 17,-21 20,-33 13,-42 -6,-6 -8,-16 -5,-22 8,-12 42,-6 39,7 -2,6 1,22 6,36 12,29 3,40 -18,24 -12,-10 -12,-7 2,8 17,20 16,21 -19,47 -41,29 -81,24 -76,-9 2,-16 0,-15 -16,5 l -19,24 -17,-24 c -19,-28 -20,-50 -3,-68 10,-11 9,-13 -1,-7 -15,9 -27,-17 -18,-41 6,-14 9,-14 27,6 24,26 35,22 20,-7 -7,-13 -7,-23 2,-32 10,-12 9,-12 -5,-1 -14,11 -19,8 -32,-16 -8,-15 -16,-23 -16,-18 -3,23 -9,48 -16,63 -4,9 -8,25 -9,34 -3,26 -52,96 -81,115 -38,24 -104,26 -142,3 z m 116,-46 c 27,-18 74,-118 66,-138 -3,-8 0,-17 6,-21 8,-5 5,-15 -11,-31 -23,-24 -42,-24 -33,0 8,20 -21,71 -69,123 l -42,45 24,19 c 28,23 31,23 59,3 z m -57,-169 c 6,-22 15,-48 20,-58 10,-18 4,-37 -10,-37 -5,0 -14,21 -20,48 -7,26 -17,55 -22,64 -5,10 -9,28 -9,40 1,23 1,23 16,3 8,-11 19,-38 25,-60 z"
       id="path37"
       inkscape:connector-curvature="0" />
    <path
       d="m 7055,2859 c -34,-30 -35,-30 -58,-12 -30,23 -93,25 -89,1 1,-9 -7,-18 -19,-21 -14,-4 -20,-11 -16,-21 3,-8 2,-18 -4,-21 -5,-4 -8,-40 -6,-85 3,-60 1,-80 -9,-84 -22,-9 -44,4 -60,36 -9,17 -20,26 -27,22 -9,-5 -9,-4 0,6 9,10 8,20 -4,44 -10,17 -18,36 -19,43 -3,17 -26,86 -32,97 -3,5 -11,1 -19,-9 -7,-11 -13,-15 -13,-11 0,14 -34,-12 -36,-28 -2,-14 42,-47 61,-46 3,0 7,0 10,0 3,0 1,-9 -5,-20 -8,-15 -6,-29 6,-57 9,-21 19,-47 21,-58 2,-11 12,-32 22,-46 16,-22 17,-27 4,-35 -13,-8 -12,-13 7,-37 28,-35 46,-34 65,2 18,36 34,42 62,24 12,-8 32,-13 45,-11 20,3 23,9 23,43 0,29 -4,39 -14,37 -12,-3 -12,0 -2,12 18,21 6,34 -28,31 -25,-2 -30,1 -33,26 -3,16 -3,43 0,59 3,24 7,28 18,19 11,-9 16,-6 23,13 5,13 16,29 24,36 12,10 17,8 31,-12 9,-14 16,-39 16,-55 0,-16 5,-33 10,-36 6,-4 8,-15 5,-25 -8,-26 14,-36 23,-10 7,20 9,20 21,6 8,-9 9,-16 4,-16 -5,0 -17,-6 -27,-13 -15,-11 -16,-16 -2,-47 25,-60 99,-117 137,-105 31,10 46,45 44,107 -1,58 -26,105 -48,91 -5,-3 -7,-1 -3,5 10,17 -10,23 -24,7 -15,-18 -15,-42 -2,-107 8,-41 7,-48 -6,-48 -8,0 -13,2 -10,5 7,8 -28,136 -37,133 -4,-2 -12,7 -16,20 -5,13 -14,20 -20,17 -6,-4 -5,2 2,13 9,15 17,18 25,11 13,-10 32,7 20,18 -3,3 1,15 9,26 12,16 12,24 2,36 -10,14 -10,14 4,4 11,-9 19,-9 26,-2 8,8 22,4 49,-15 21,-14 35,-26 30,-26 -5,0 -3,-7 4,-15 7,-8 16,-12 22,-9 5,3 4,12 -3,20 -7,9 -8,14 -1,14 17,0 23,-35 12,-65 -6,-15 -8,-30 -5,-33 2,-3 0,-11 -6,-18 -6,-8 -9,-21 -5,-29 4,-12 10,-14 25,-5 14,7 22,7 27,-1 10,-16 34,18 34,47 0,16 5,21 18,19 9,-2 18,-4 20,-5 1,-2 6,-3 11,-4 5,0 13,-4 17,-8 3,-4 -3,-6 -14,-3 -29,5 -34,-6 -17,-38 7,-14 11,-28 8,-31 -3,-3 4,-17 15,-33 l 20,-28 -23,-1 c -22,-2 -47,31 -49,63 -1,7 -5,12 -11,10 -5,-1 -9,-7 -9,-14 1,-8 -5,-7 -21,3 -20,13 -24,13 -35,-1 -20,-25 37,-111 80,-119 3,-1 10,-4 16,-8 27,-18 98,20 88,47 -3,7 -1,16 5,20 29,17 -12,125 -73,193 -20,22 -36,42 -36,45 0,4 10,15 21,26 l 22,20 29,-21 c 27,-18 31,-19 45,-5 16,15 9,42 -8,32 -5,-4 -9,-2 -9,4 0,17 -41,34 -53,22 -7,-7 -16,-7 -29,0 -12,6 -25,6 -39,-1 -17,-10 -18,-14 -7,-27 12,-14 11,-15 -8,-5 -18,9 -24,9 -34,-3 -11,-14 -15,-13 -32,2 -11,10 -31,16 -44,15 -16,-2 -24,1 -22,10 2,8 -10,13 -35,15 -29,2 -45,-4 -72,-28 z m 14,-65 c 3,-2 -7,-3 -21,-2 -13,1 -25,8 -25,15 0,9 5,9 21,1 12,-6 23,-12 25,-14 z m 241,-28 c 0,-16 -24,12 -26,31 -2,16 -1,16 12,-1 8,-11 14,-24 14,-30 z m -20,-68 c 0,-16 -3,-19 -11,-11 -6,6 -8,16 -5,22 11,17 16,13 16,-11 z"
       id="path39"
       inkscape:connector-curvature="0" />
    <path
       d="m 3340,2845 c -9,-11 -16,-12 -25,-5 -18,15 -52,-37 -35,-54 8,-8 14,-7 24,6 9,12 16,14 29,7 14,-8 19,-5 27,17 13,32 -1,52 -20,29 z"
       id="path41"
       inkscape:connector-curvature="0" />
    <path
       d="m 7447,2813 c -15,-15 -14,-19 4,-55 31,-61 75,-42 49,22 -18,43 -33,53 -53,33 z"
       id="path43"
       inkscape:connector-curvature="0" />
    <path
       d="m 4858,2794 c -9,-14 11,-56 22,-49 13,8 13,18 -3,40 -8,10 -16,14 -19,9 z"
       id="path45"
       inkscape:connector-curvature="0" />
    <path
       d="m 3119,2769 c -2,-8 -9,-55 -11,-66 -1,-12 -23,-17 -60,-14 -23,3 -31,-15 -18,-38 8,-16 18,-19 50,-16 26,3 39,0 37,-7 -1,-6 7,-14 18,-17 11,-3 21,-13 23,-21 5,-21 99,-278 116,-316 13,-28 19,-32 60,-32 65,-2 70,12 61,162 -4,66 -11,130 -14,141 -10,27 2,81 17,78 6,-2 16,6 22,17 12,22 10,23 -41,34 -24,5 -27,10 -25,46 1,41 -16,60 -22,25 -2,-11 -9,-24 -14,-30 -8,-7 -9,-6 -5,1 8,13 -16,37 -26,27 -13,-12 -7,-42 10,-51 32,-18 24,-39 -16,-38 -29,1 -36,-2 -36,-19 0,-13 7,-20 20,-20 11,0 19,6 18,13 -2,6 1,12 7,12 8,0 6,-168 -3,-177 -6,-6 -67,144 -67,165 0,10 5,23 12,30 17,17 -15,27 -41,12 -22,-11 -22,-11 -25,30 -1,8 -8,14 -15,12 -9,-2 -12,4 -8,17 3,11 -1,25 -9,32 -8,6 -14,10 -15,8 z m 231,-250 c 0,-18 -2,-19 -15,-9 -15,12 -12,30 6,30 5,0 9,-10 9,-21 z"
       id="path47"
       inkscape:connector-curvature="0" />
    <path
       d="m 6656,2752 c -12,-14 -13,-21 -4,-30 9,-9 7,-16 -5,-30 -9,-10 -14,-22 -10,-25 3,-4 1,-7 -5,-7 -6,0 -14,5 -18,11 -16,26 -26,-12 -19,-75 8,-73 19,-87 67,-89 l 33,-2 -2,65 c -1,36 -2,93 -3,127 -1,69 -9,82 -34,55 z"
       id="path49"
       inkscape:connector-curvature="0" />
    <path
       d="m 4753,2742 c -3,-12 -9,-19 -14,-17 -4,3 -13,-3 -19,-14 -7,-13 -7,-22 0,-26 6,-3 13,1 16,9 10,26 19,18 19,-17 0,-20 -8,-40 -22,-54 -23,-23 -31,-77 -13,-88 5,-3 7,-12 4,-20 -5,-13 11,-113 23,-145 3,-8 7,-22 8,-30 5,-42 18,-80 29,-89 19,-16 54,-1 75,33 45,74 35,182 -29,311 -22,44 -40,95 -40,112 0,17 -7,36 -16,43 -13,11 -16,10 -21,-8 z"
       id="path51"
       inkscape:connector-curvature="0" />
    <path
       d="m 4917,2753 c -4,-3 -7,-17 -7,-30 0,-25 -10,-29 -28,-11 -9,9 -13,7 -18,-5 -9,-25 13,-46 41,-41 19,3 23,1 19,-11 -5,-11 -10,-13 -19,-5 -24,20 -37,-13 -25,-66 14,-63 23,-72 67,-70 30,1 37,5 40,25 2,13 -3,35 -10,50 -7,14 -14,44 -15,66 -3,34 -27,105 -36,105 -1,0 -6,-3 -9,-7 z"
       id="path53"
       inkscape:connector-curvature="0" />
    <path
       d="m 3707,2743 c -10,-9 -8,-51 2,-57 17,-11 33,21 21,43 -12,23 -14,24 -23,14 z"
       id="path55"
       inkscape:connector-curvature="0" />
    <path
       d="m 4619,2719 c -6,-12 -8,-35 -5,-52 6,-29 5,-30 -8,-12 -13,18 -14,18 -25,-4 -15,-27 -6,-94 14,-111 22,-19 93,0 79,21 -3,5 -10,7 -15,4 -12,-8 -11,2 1,26 6,11 7,25 3,32 -4,6 -6,19 -5,29 2,9 -2,19 -8,23 -5,3 -7,17 -4,30 8,30 -12,41 -27,14 z"
       id="path57"
       inkscape:connector-curvature="0" />
    <path
       d="m 6905,2730 c -3,-5 -1,-12 5,-15 8,-5 8,-11 0,-20 -18,-21 -3,-37 21,-24 25,13 23,61 -3,65 -10,1 -20,-2 -23,-6 z"
       id="path59"
       inkscape:connector-curvature="0" />
    <path
       d="m 3895,2720 c -4,-6 -3,-16 3,-22 6,-6 12,-6 17,2 4,6 3,16 -3,22 -6,6 -12,6 -17,-2 z"
       id="path61"
       inkscape:connector-curvature="0" />
    <path
       d="m 4703,2664 c -3,-8 -2,-22 1,-31 6,-14 9,-15 21,-2 7,8 15,20 17,28 4,18 -32,23 -39,5 z"
       id="path63"
       inkscape:connector-curvature="0" />
    <path
       d="m 6912,2484 c -12,-8 -22,-24 -22,-35 0,-26 35,-59 64,-59 30,0 60,42 43,59 -6,6 -7,11 -2,11 4,0 0,9 -10,20 -22,24 -43,25 -73,4 z"
       id="path65"
       inkscape:connector-curvature="0" />
    <path
       d="m 4650,2482 c -38,-4 -60,-17 -60,-36 0,-40 75,-72 87,-38 4,9 12,21 20,25 16,10 17,32 1,43 -7,5 -29,8 -48,6 z"
       id="path67"
       inkscape:connector-curvature="0" />
    <path
       d="m 7991,2026 c -8,-10 -9,-16 -1,-21 5,-3 10,-3 10,1 0,3 6,1 13,-5 14,-11 27,-6 27,10 0,5 -9,13 -19,18 -14,8 -22,7 -30,-3 z"
       id="path69"
       inkscape:connector-curvature="0" />
    <path
       d="m 7914,2006 c -4,-10 -2,-22 4,-28 8,-8 13,-7 18,6 4,10 2,22 -4,28 -8,8 -13,7 -18,-6 z"
       id="path71"
       inkscape:connector-curvature="0" />
    <path
       d="m 7972,1969 c -24,-9 -22,-29 2,-29 17,0 40,27 29,33 -4,3 -18,1 -31,-4 z"
       id="path73"
       inkscape:connector-curvature="0" />
  </g>
  <g
     id="layer2"
     style="fill:#777676;stroke:none"
     transform="translate(-27.948665,2955.2766)">
    <path
       d="m 5543,3120 c -18,-7 -21,-15 -17,-47 2,-21 6,-78 8,-128 3,-49 9,-104 14,-122 6,-17 7,-34 4,-38 -9,-9 -12,-38 -4,-50 7,-9 7,-19 3,-49 -2,-18 -33,19 -52,64 -27,63 -80,113 -121,116 -38,3 -68,-11 -68,-30 0,-8 -6,-18 -13,-24 -19,-17 -15,-149 7,-194 28,-57 63,-90 86,-83 14,4 20,2 18,-6 -5,-20 54,-20 80,0 22,16 27,35 31,109 1,9 13,4 34,-15 19,-15 31,-32 27,-38 -12,-16 -6,-70 7,-70 6,0 15,-4 20,-9 4,-5 3,-6 -4,-2 -20,11 -27,-16 -8,-30 14,-11 16,-16 6,-28 -9,-11 -9,-20 -2,-34 12,-23 38,-35 46,-21 4,5 -1,12 -9,15 -9,3 -13,10 -10,16 3,5 11,4 20,-3 14,-11 15,-10 18,11 0,5 6,14 12,20 9,9 6,22 -9,53 -33,68 -34,71 -29,108 2,20 -1,40 -7,43 -6,4 -7,15 -2,29 6,15 4,31 -4,47 -16,30 -1,80 24,80 21,0 63,-29 57,-39 -3,-4 2,-18 10,-30 12,-17 19,-19 30,-10 11,9 11,15 -1,39 -25,48 -67,91 -83,85 -11,-4 -13,0 -8,17 4,13 7,57 8,99 1,69 -2,80 -27,113 -15,19 -31,34 -35,31 -5,-3 -11,-1 -15,5 -7,12 -13,12 -42,0 z m 74,-79 c 1,-8 -2,-22 -7,-30 -5,-9 -10,-11 -10,-6 -1,6 -3,28 -6,50 -3,35 -2,37 8,20 7,-11 13,-27 15,-34 z m -181,-269 c 10,-26 21,-52 26,-59 7,-8 -5,-18 -36,-32 -25,-11 -46,-27 -46,-35 0,-8 -5,-18 -12,-22 -6,-4 -8,-3 -5,3 4,6 2,24 -2,41 -16,54 22,174 50,157 4,-3 15,-27 25,-53 z m 19,-141 c -3,-5 -1,-12 5,-16 6,-4 7,-12 3,-18 -4,-7 -8,-16 -8,-22 0,-5 -9,-10 -20,-10 -14,0 -20,7 -21,22 -1,12 2,20 7,17 4,-2 13,5 19,16 6,11 13,20 16,20 3,0 3,-4 -1,-9 z"
       id="path76"
       inkscape:connector-curvature="0" />
    <path
       d="m 4858,3103 c -16,-3 -37,-17 -49,-34 -20,-29 -20,-31 -3,-50 17,-19 18,-19 44,6 14,13 39,27 55,31 25,5 33,1 50,-23 24,-34 48,-99 41,-111 -3,-5 1,-17 8,-28 8,-10 12,-24 9,-31 -3,-7 0,-20 7,-28 20,-24 4,-17 -26,10 -34,31 -54,32 -84,0 l -23,-24 -31,22 c -39,28 -75,29 -103,4 -22,-19 -22,-19 -67,2 -43,21 -46,21 -70,5 -14,-9 -26,-21 -26,-27 0,-6 -7,-2 -15,9 -8,10 -15,15 -15,11 0,-5 -10,-1 -22,7 -12,9 -30,16 -39,16 -25,0 -69,-57 -69,-89 0,-48 -12,-42 -41,19 -31,66 -55,77 -82,37 -11,-17 -14,-43 -12,-98 l 4,-74 -19,42 c -10,24 -22,60 -26,80 -13,74 -47,101 -85,67 -15,-13 -21,-14 -46,-2 -41,20 -76,17 -88,-8 l -11,-22 -27,24 c -28,24 -67,25 -95,1 -31,-25 -48,-119 -31,-163 5,-14 11,-39 14,-57 4,-17 11,-38 18,-46 9,-11 9,-13 0,-8 -6,4 -14,4 -17,-1 -4,-7 -21,-7 -70,-3 -5,1 -6,14 -3,31 4,17 2,32 -4,36 -7,4 -9,24 -6,50 2,23 0,47 -5,52 -5,5 -10,36 -10,68 -1,66 -9,89 -39,105 -35,18 -59,-13 -54,-70 2,-25 4,-47 5,-48 4,-4 9,-52 13,-113 2,-40 7,-54 17,-52 11,2 11,0 1,-11 -6,-8 -10,-21 -9,-28 2,-7 -4,-13 -12,-14 -24,0 -17,-38 10,-52 14,-7 21,-13 16,-13 -6,0 0,-9 12,-20 22,-20 32,-67 12,-55 -13,8 -24,-20 -15,-35 5,-8 13,-6 26,6 20,18 24,12 20,-28 -3,-26 15,-29 35,-7 18,20 18,21 1,34 -10,7 -14,16 -9,19 5,3 8,25 7,50 l -1,44 52,-4 c 59,-3 71,5 53,38 -10,20 -8,19 19,-6 17,-15 35,-25 40,-22 6,4 13,2 16,-3 20,-31 102,24 90,61 -3,9 0,19 6,23 10,6 4,53 -11,69 -4,5 -5,14 -2,21 2,8 -1,23 -7,35 -8,14 -8,25 -1,33 6,8 6,18 1,27 -12,19 -3,30 24,30 27,0 48,-37 52,-95 8,-99 12,-126 23,-139 9,-10 9,-16 1,-21 -19,-12 19,-44 48,-42 22,2 27,8 27,29 1,40 -13,71 -27,62 -10,-6 -10,-4 -2,7 17,21 25,67 14,74 -13,8 -13,25 -1,25 5,0 15,-25 21,-56 6,-30 18,-58 25,-60 8,-3 12,-11 9,-18 -5,-14 37,-81 51,-81 6,0 16,-4 23,-8 6,-5 13,-6 13,-3 3,13 6,22 13,38 4,9 4,23 0,30 -4,7 -8,29 -9,50 -1,21 -4,41 -8,44 -10,11 -8,54 2,54 5,0 15,-16 21,-35 6,-19 20,-40 31,-45 11,-6 18,-19 16,-33 -1,-13 3,-21 11,-19 6,1 11,-3 10,-9 -2,-6 5,-16 14,-22 14,-9 22,-8 37,8 19,20 19,21 -4,106 -33,126 -14,198 35,129 12,-16 18,-30 14,-30 -3,0 -2,-6 5,-13 7,-10 8,-16 0,-24 -12,-12 4,-106 21,-128 4,-5 9,-18 11,-28 2,-10 9,-18 14,-18 6,-1 15,-5 21,-10 7,-6 17,-2 27,9 14,15 14,23 4,52 -7,19 -16,40 -20,47 -4,6 -3,14 3,18 6,4 7,13 1,23 -12,23 -13,119 -2,126 31,20 62,-33 54,-91 -3,-22 0,-49 5,-60 8,-14 8,-23 0,-31 -8,-8 -8,-15 0,-25 6,-7 13,-35 16,-62 2,-27 10,-54 18,-60 7,-5 22,-22 33,-36 23,-29 40,-35 40,-14 0,16 19,21 21,5 3,-21 4,-22 18,-10 11,9 13,18 5,37 -5,15 -7,33 -4,41 5,13 -45,120 -71,152 -13,15 -13,51 -1,80 3,8 7,28 9,44 4,39 22,43 53,12 19,-19 24,-32 19,-51 -3,-14 -1,-31 6,-40 6,-8 9,-23 5,-34 -3,-12 -3,-26 1,-33 4,-7 9,-26 11,-43 4,-35 34,-80 54,-81 8,0 22,4 31,8 17,8 17,12 3,44 -8,20 -13,39 -10,44 2,4 -1,15 -9,25 -8,11 -11,39 -9,79 5,74 8,86 27,86 13,0 22,-19 32,-65 3,-11 10,-38 16,-60 6,-22 12,-49 12,-60 1,-22 42,-36 68,-23 14,6 17,18 14,46 -2,20 -7,45 -11,55 -4,9 -5,27 -2,39 3,12 2,29 -4,39 -5,10 -10,31 -11,46 -2,41 -28,132 -50,172 -25,48 -107,121 -133,120 -11,-1 -32,-4 -47,-6 z m -858,-334 c 8,-24 18,-49 22,-55 4,-5 3,-27 -2,-48 -5,-25 -5,-47 3,-63 9,-20 7,-27 -12,-46 -12,-12 -21,-17 -20,-12 1,6 -6,28 -16,50 -10,22 -21,70 -23,107 -8,119 17,154 48,67 z m 800,-221 c 0,-7 6,-25 14,-40 15,-29 10,-44 -10,-27 -7,6 -10,17 -8,24 3,7 1,23 -6,34 -7,14 -7,21 0,21 5,0 10,-6 10,-12 z"
       id="path78"
       inkscape:connector-curvature="0" />
    <path
       d="m 5920,2918 c -47,-13 -58,-24 -70,-66 -8,-30 -6,-41 11,-69 20,-33 58,-51 78,-38 7,4 6,14 -5,30 -10,16 -12,25 -4,30 8,5 8,11 0,20 -15,18 8,68 33,73 9,2 31,-11 48,-28 28,-28 31,-35 25,-72 -8,-47 -35,-98 -52,-98 -16,0 -65,-64 -88,-113 -14,-30 -15,-41 -5,-53 9,-11 9,-21 1,-38 -9,-20 -7,-27 9,-42 17,-15 24,-13 20,9 0,4 4,7 10,7 6,0 9,-7 6,-15 -10,-24 11,-27 24,-4 9,18 9,25 -5,34 -20,15 -21,29 -1,21 10,-3 18,1 21,12 10,33 38,77 83,133 45,57 51,70 56,124 4,54 -49,128 -103,140 -9,2 -26,6 -37,9 -11,3 -36,0 -55,-6 z"
       id="path80"
       inkscape:connector-curvature="0" />
    <path
       d="m 2900,2904 c -7,-7 -21,-14 -32,-14 -10,0 -21,-8 -24,-17 -3,-10 -8,-25 -11,-33 -15,-41 1,-118 25,-121 4,0 17,-2 29,-5 29,-5 35,7 21,43 -6,17 -8,38 -5,47 4,9 7,20 8,24 4,31 48,41 93,20 28,-12 40,-28 86,-112 l 30,-57 -35,3 c -44,3 -75,-23 -59,-50 13,-20 74,-28 101,-13 16,8 22,0 47,-62 33,-83 37,-87 62,-91 14,-2 19,-11 19,-33 0,-36 23,-69 38,-54 7,7 5,17 -7,30 -9,10 -16,22 -15,27 1,5 0,11 -1,14 -1,3 -3,13 -5,23 -6,32 -15,48 -22,44 -5,-3 -8,8 -9,24 -1,16 -9,38 -19,49 -18,20 -18,21 13,24 9,1 22,5 29,9 17,11 41,-18 38,-47 -2,-14 1,-28 6,-31 4,-3 4,-16 -1,-29 -12,-32 25,-70 53,-55 9,6 15,13 13,17 -2,4 -1,26 4,50 4,23 4,45 -1,47 -10,7 -7,45 3,46 4,1 18,2 31,3 30,1 29,31 -2,31 -22,0 -24,4 -28,75 -5,103 -10,119 -39,132 -21,10 -28,8 -46,-9 -14,-15 -18,-27 -13,-40 4,-10 7,-30 6,-45 -1,-14 3,-29 8,-33 8,-4 8,-12 1,-26 -6,-11 -8,-24 -4,-31 5,-7 -3,-9 -25,-6 -18,3 -34,1 -37,-4 -7,-11 -54,22 -65,46 -35,76 -98,150 -151,177 -22,11 -42,18 -45,15 -3,-2 -15,-1 -28,4 -17,6 -27,5 -35,-6 z"
       id="path82"
       inkscape:connector-curvature="0" />
    <path
       d="m 6258,2884 c -4,-3 -12,-7 -20,-8 -78,-16 -119,-143 -81,-251 19,-54 63,-117 79,-111 6,2 15,2 18,-1 14,-15 56,-10 71,8 19,20 28,106 13,115 -5,3 -6,9 -3,14 6,10 -73,130 -87,130 -19,0 -3,45 21,57 21,10 28,8 52,-10 32,-25 61,-86 65,-136 2,-18 5,-36 9,-39 3,-3 -2,-13 -10,-22 -8,-9 -16,-25 -18,-36 -1,-10 -6,-24 -10,-30 -8,-14 1,-24 18,-18 8,4 12,-4 11,-23 0,-15 4,-28 9,-28 6,0 16,-4 23,-8 13,-9 15,-6 16,38 1,38 41,60 81,45 36,-14 44,-6 38,33 -2,17 -5,39 -5,47 0,8 -4,20 -8,25 -9,13 -7,131 3,141 22,22 78,-68 56,-90 -14,-15 -11,-48 7,-68 13,-13 14,-21 6,-31 -8,-9 -9,-24 -2,-47 5,-18 7,-37 4,-41 -6,-11 37,-29 60,-25 26,4 28,13 12,38 -9,14 -14,27 -11,30 10,10 15,77 5,83 -9,5 -6,43 5,53 2,3 0,11 -6,18 -6,8 -6,14 0,18 5,4 13,1 18,-6 17,-27 55,-134 60,-168 6,-46 35,-85 57,-77 8,3 13,13 10,20 -8,21 56,44 81,29 22,-13 60,-6 54,11 -1,1 -2,25 -3,52 -1,28 -6,56 -10,64 -9,15 -9,118 0,132 9,14 43,-9 59,-41 8,-16 14,-47 12,-72 -2,-24 4,-56 11,-73 23,-48 78,-110 98,-113 11,-1 28,-3 39,-4 12,-2 19,2 18,9 -2,7 2,12 8,10 16,-3 33,49 23,71 -4,9 -6,23 -5,30 3,18 -36,79 -55,86 -9,4 -22,1 -30,-5 -11,-9 -11,-16 1,-42 29,-69 36,-99 25,-116 -9,-16 -60,36 -54,54 4,8 1,22 -6,30 -6,8 -9,18 -6,24 4,5 8,39 10,76 2,50 7,69 22,80 35,26 53,24 84,-8 25,-25 30,-40 32,-81 1,-28 2,-58 4,-66 1,-8 2,-20 3,-27 1,-6 13,-25 27,-42 14,-17 22,-31 18,-31 -4,0 5,-13 21,-30 15,-16 32,-27 37,-24 5,3 15,1 22,-5 19,-16 94,53 78,71 -5,7 -12,32 -14,55 -6,47 -39,107 -80,143 -27,24 -28,26 -13,48 9,12 27,22 40,22 27,0 77,-48 85,-83 8,-29 33,-28 35,1 3,38 -73,128 -105,125 -3,0 -10,2 -17,4 -20,8 -79,-16 -103,-42 l -24,-25 -31,30 c -23,22 -41,30 -70,32 -44,1 -99,-22 -108,-47 -5,-12 -12,-11 -44,11 -27,18 -45,23 -63,19 -33,-9 -52,-25 -46,-40 2,-7 0,-17 -6,-23 -15,-15 -16,-87 -2,-149 9,-43 9,-53 -2,-53 -7,0 -16,5 -19,10 -4,6 -15,8 -25,5 -16,-5 -25,5 -49,57 -16,35 -40,92 -54,128 -28,73 -45,83 -87,52 -27,-20 -27,-20 -56,-1 -44,28 -82,25 -95,-8 -6,-16 -16,-40 -24,-55 -8,-16 -9,-30 -4,-34 5,-3 5,-13 -1,-24 -7,-12 -7,-27 0,-45 14,-36 13,-45 -6,-45 -11,0 -15,6 -11,20 3,11 1,23 -5,26 -5,3 -8,15 -5,25 3,10 -1,23 -8,29 -7,6 -16,23 -20,37 -12,49 -81,113 -105,98 -5,-3 -11,-1 -15,5 -7,11 -19,13 -27,4 z m 7,-208 c 8,-19 15,-49 17,-68 1,-18 5,-38 10,-44 5,-7 3,-14 -6,-17 -9,-4 -17,-3 -20,1 -32,53 -53,103 -44,108 6,4 8,26 5,51 -4,40 -3,42 10,24 7,-11 20,-36 28,-55 z m 1065,43 c 0,-5 8,-21 17,-35 9,-15 18,-46 19,-70 2,-25 6,-49 9,-54 7,-11 -6,-13 -29,-4 -9,3 -14,9 -12,13 2,3 -2,31 -10,61 -16,64 -18,114 -4,105 6,-3 10,-11 10,-16 z"
       id="path84"
       inkscape:connector-curvature="0" />
    <path
       d="m 4616,2479 c -8,-12 -12,-27 -8,-33 4,-6 7,-15 7,-20 0,-5 9,-15 21,-22 18,-13 24,-12 47,6 26,21 26,21 8,53 -22,39 -53,46 -75,16 z"
       id="path86"
       inkscape:connector-curvature="0" />
    <path
       d="m 6929,2482 c -1,-4 -1,-11 0,-16 1,-4 -6,-14 -16,-22 -10,-7 -16,-14 -13,-14 3,-1 16,-3 30,-4 14,-2 30,-5 35,-7 6,-2 12,1 13,6 2,6 8,15 13,21 6,7 4,16 -7,25 -18,15 -53,22 -55,11 z"
       id="path88"
       inkscape:connector-curvature="0" />
    <path
       d="m 6088,2463 c -10,-17 -2,-68 10,-69 6,-1 15,-3 20,-4 4,-1 10,-2 14,-1 4,0 5,-5 2,-13 -7,-17 12,-31 21,-16 8,13 -22,50 -38,47 -6,-1 -11,10 -11,25 -1,28 -11,45 -18,31 z"
       id="path90"
       inkscape:connector-curvature="0" />
    <path
       d="m 3303,2434 c -8,-21 4,-44 21,-38 8,3 13,0 13,-10 -3,-21 18,-20 20,1 1,10 3,26 5,37 4,23 -50,33 -59,10 z"
       id="path92"
       inkscape:connector-curvature="0" />
    <path
       d="m 5926,2413 c -4,-5 -12,-9 -17,-9 -5,-1 -12,-2 -15,-3 -4,0 -1,-8 6,-16 7,-8 9,-15 6,-15 -4,0 -2,-9 4,-20 6,-11 16,-18 21,-14 6,4 5,14 -5,29 -16,25 -10,41 10,24 8,-7 14,-7 19,1 12,20 -12,39 -29,23 z"
       id="path94"
       inkscape:connector-curvature="0" />
    <path
       d="m 3308,2343 c -8,-10 -13,-24 -11,-31 3,-7 -1,-11 -9,-10 -8,2 -12,-4 -10,-17 6,-33 18,-37 35,-11 11,16 13,27 6,31 -6,4 -3,12 8,20 13,10 15,17 7,25 -7,7 -15,6 -26,-7 z"
       id="path96"
       inkscape:connector-curvature="0" />
    <path
       d="m 5955,2350 c -4,-6 -3,-16 3,-22 6,-6 12,-6 17,2 4,6 3,16 -3,22 -6,6 -12,6 -17,-2 z"
       id="path98"
       inkscape:connector-curvature="0" />
    <path
       d="m 5665,2326 c -11,-8 -14,-16 -8,-19 6,-4 18,0 28,7 11,8 14,16 8,19 -6,4 -18,0 -28,-7 z"
       id="path100"
       inkscape:connector-curvature="0" />
    <path
       d="m 3655,2320 c -4,-6 -3,-16 3,-22 6,-6 12,-6 17,2 4,6 3,16 -3,22 -6,6 -12,6 -17,-2 z"
       id="path102"
       inkscape:connector-curvature="0" />
    <path
       d="m 3715,2321 c -7,-12 12,-24 25,-16 11,7 4,25 -10,25 -5,0 -11,-4 -15,-9 z"
       id="path104"
       inkscape:connector-curvature="0" />
    <path
       d="m 3767,2306 c -9,-13 -13,-26 -10,-30 9,-9 43,13 43,29 0,25 -17,25 -33,1 z"
       id="path106"
       inkscape:connector-curvature="0" />
    <path
       d="m 6065,2271 c -7,-12 12,-24 25,-16 11,7 4,25 -10,25 -5,0 -11,-4 -15,-9 z"
       id="path108"
       inkscape:connector-curvature="0" />
  </g>
  <g
     id="layer3"
     style="fill:#e19054;stroke:none"
     transform="translate(-27.948665,2955.2766)">
    <path
       d="m 4010,2018 -85,-43 -16,-63 c -9,-35 -21,-68 -26,-73 -6,-6 -32,-9 -59,-7 l -49,3 -25,95 c -28,105 -35,120 -56,120 -44,0 -143,-137 -129,-179 3,-11 2,-22 -3,-25 -5,-3 -14,31 -20,76 -21,144 -53,160 -140,73 l -55,-55 7,-87 c 3,-47 11,-92 16,-98 16,-19 -14,-37 -57,-33 l -38,3 -5,150 c -3,83 -9,156 -13,163 -21,32 -112,-2 -165,-63 -31,-35 -32,-38 -34,-143 -2,-140 0,-311 6,-392 l 5,-65 -29,87 c -36,106 -67,255 -86,408 -7,63 -14,121 -14,128 0,6 -9,21 -20,32 -16,16 -33,20 -90,20 -62,0 -73,-3 -100,-27 -27,-25 -32,-39 -46,-123 -8,-52 -19,-99 -23,-103 -11,-11 -31,93 -31,160 0,79 -19,94 -114,90 -74,-3 -98,-13 -117,-49 -10,-18 -70,-292 -67,-305 0,-5 -1,-15 -5,-23 -13,-34 -70,-318 -71,-354 -1,-31 5,-43 31,-66 37,-33 114,-50 138,-30 8,7 21,10 29,7 26,-10 43,35 49,133 6,98 29,197 40,170 14,-35 48,-233 43,-246 -3,-8 4,-28 15,-43 19,-26 26,-28 78,-27 32,0 65,7 73,14 10,8 17,38 21,90 3,42 11,101 17,130 11,48 13,51 25,35 7,-10 11,-21 9,-25 -3,-5 -2,-14 3,-20 4,-7 8,-24 9,-38 3,-40 43,-138 72,-171 24,-29 29,-31 79,-27 41,4 60,11 83,33 l 29,27 29,-21 c 37,-26 135,-39 157,-21 10,8 14,22 11,34 -3,12 -6,77 -7,146 l -1,125 51,3 c 44,3 51,0 51,-15 0,-10 4,-56 10,-103 5,-47 10,-103 11,-125 1,-22 7,-46 12,-52 23,-31 128,0 176,51 42,44 39,101 -15,395 -14,73 -23,135 -21,137 2,2 21,-54 42,-124 60,-201 142,-432 161,-453 56,-62 229,34 252,141 l 10,45 1,-55 c 1,-31 8,-65 16,-76 22,-32 109,-66 161,-63 24,2 46,0 50,-4 4,-4 62,-7 129,-7 105,0 124,2 138,18 16,17 15,22 -7,78 -23,57 -26,60 -75,74 -39,11 -55,22 -67,44 -8,16 -13,34 -11,40 3,6 -2,79 -9,161 -7,83 -13,200 -14,260 0,129 -13,161 -59,150 -34,-9 -108,-70 -132,-109 l -19,-31 7,35 c 11,54 9,105 -4,105 -6,0 -15,3 -19,8 -11,11 -14,10 -104,-35 z m -1122,-22 c 6,-4 11,-26 11,-49 -2,-111 89,-521 133,-602 37,-68 29,-82 -45,-87 -46,-3 -49,-2 -67,32 -32,60 -49,113 -55,172 -8,69 -34,109 -61,92 -40,-24 -54,-58 -65,-164 -12,-116 -22,-133 -74,-128 -29,3 -30,5 -37,68 -9,92 -26,180 -36,194 -6,6 -13,26 -17,43 -9,44 -23,50 -51,22 -35,-36 -64,-129 -72,-233 l -7,-91 -30,-3 c -48,-6 -102,15 -109,41 -6,27 3,117 14,132 4,6 11,33 14,60 4,28 16,84 27,127 10,42 19,87 19,101 0,13 9,53 20,87 11,34 20,76 20,92 0,17 7,45 16,64 l 17,35 66,-3 66,-3 2,-75 c 3,-82 25,-155 52,-170 10,-5 31,-8 47,-7 26,2 29,5 26,35 -2,18 1,54 7,80 6,26 13,63 16,82 7,45 44,69 101,66 23,-2 46,-6 52,-10 z m 336,-143 c 1,-148 4,-160 47,-168 91,-19 95,-18 118,10 19,25 20,36 15,94 -4,36 -11,76 -15,89 -7,17 -1,32 23,67 52,74 86,57 85,-42 0,-34 5,-68 12,-76 6,-8 16,-52 21,-98 6,-46 15,-97 19,-114 5,-16 17,-79 26,-138 16,-103 16,-111 0,-148 -11,-24 -25,-39 -36,-39 -9,0 -31,-8 -48,-17 -16,-10 -32,-15 -35,-13 -2,3 -7,53 -9,110 -5,128 -22,188 -55,201 -40,15 -98,10 -123,-10 -23,-19 -24,-23 -22,-161 l 3,-141 -48,7 c -26,3 -52,11 -59,16 -24,19 -37,154 -37,402 l -1,250 44,33 c 71,55 74,50 75,-114 z m 872,130 c -3,-10 -8,-40 -11,-67 -9,-78 -35,-198 -50,-231 -7,-16 -17,-59 -21,-95 -3,-36 -11,-71 -16,-77 -6,-7 -13,-43 -17,-81 -5,-54 -12,-75 -33,-100 -15,-18 -30,-32 -35,-32 -4,0 -27,-10 -50,-22 -43,-23 -43,-23 -61,-3 -21,22 -62,115 -62,139 0,8 -13,48 -30,89 -16,41 -35,99 -41,128 -6,30 -15,59 -19,64 -4,6 -18,43 -30,82 -22,71 -22,74 -5,128 17,55 43,82 70,71 8,-3 17,-29 21,-65 5,-44 14,-68 35,-94 28,-34 31,-35 88,-33 32,2 63,6 70,10 15,10 51,81 51,103 1,27 22,51 71,77 54,30 82,33 75,9 z m 212,-220 c 7,-126 15,-255 18,-287 7,-65 35,-116 65,-116 10,0 21,-4 24,-10 3,-5 15,-10 25,-10 11,0 26,-12 35,-30 16,-32 20,-54 7,-46 -5,3 -76,6 -159,7 -188,3 -233,16 -247,72 -12,47 3,69 35,49 16,-11 27,-9 65,8 32,14 44,24 41,34 -3,8 -9,59 -12,113 -4,54 -11,116 -17,138 -6,22 -10,80 -10,129 l 1,89 42,43 c 74,75 74,75 87,-183 z m -164,-49 c 9,-89 16,-187 16,-219 l 0,-58 -51,7 c -33,5 -56,3 -65,-5 -18,-15 -18,-7 1,75 8,36 14,69 14,73 -1,4 0,15 4,23 8,22 44,177 52,228 4,24 8,42 10,40 2,-2 10,-76 19,-164 z"
       id="path111"
       inkscape:connector-curvature="0" />
    <path
       d="m 3791,1691 c -21,-21 -21,-35 0,-148 7,-35 18,-58 32,-68 21,-15 23,-14 43,10 11,15 21,43 23,67 1,22 9,50 16,62 8,11 15,30 15,43 0,48 -91,72 -129,34 z m 79,-38 c -1,-35 -27,-118 -33,-103 -7,19 -27,93 -27,102 0,6 23,15 48,17 6,0 12,-7 12,-16 z"
       id="path113"
       inkscape:connector-curvature="0" />
    <path
       d="m 4291,1397 c -9,-11 -8,-17 4,-27 12,-10 16,-9 21,5 9,23 -10,40 -25,22 z"
       id="path115"
       inkscape:connector-curvature="0" />
    <path
       d="m 4110,1345 c -13,-15 -7,-45 8,-45 16,0 34,29 28,45 -7,19 -20,19 -36,0 z"
       id="path117"
       inkscape:connector-curvature="0" />
    <path
       d="m 5701,2051 c -8,-5 -19,-7 -26,-5 -13,6 -77,-43 -108,-83 -12,-15 -34,-52 -48,-83 l -27,-55 -7,48 c -15,95 -101,171 -193,169 -247,-6 -250,-6 -280,-29 l -30,-22 -14,21 c -21,31 -80,33 -137,4 -41,-22 -80,-53 -80,-66 0,-3 -4,-16 -9,-30 -5,-14 -13,-40 -17,-57 -6,-31 -10,-33 -48,-34 -23,0 -50,-2 -60,-4 -29,-5 -44,20 -50,86 -4,34 -12,68 -18,75 -6,8 -8,14 -4,14 5,0 0,9 -10,20 -17,19 -18,19 -65,-5 -55,-28 -85,-62 -101,-114 -9,-32 -3,-62 70,-303 44,-147 90,-286 101,-308 37,-72 100,-83 185,-30 75,46 88,73 140,281 27,107 49,201 50,209 1,8 5,22 8,30 3,8 11,31 16,50 7,25 8,9 3,-60 -17,-228 0,-467 36,-510 18,-21 134,-50 200,-50 105,1 251,134 252,229 0,43 9,17 19,-59 14,-105 15,-107 37,-131 17,-19 27,-21 80,-16 107,8 102,-4 103,229 2,204 12,304 38,366 19,46 43,39 61,-18 23,-72 27,-336 8,-449 -12,-71 -14,-97 -5,-107 14,-17 160,-20 189,-4 23,12 38,56 47,138 l 7,67 12,-67 c 19,-100 46,-155 80,-162 39,-8 94,-5 100,6 3,4 45,8 93,7 100,-1 130,10 179,65 28,32 31,43 31,93 -1,32 0,62 0,66 1,4 19,-27 41,-70 48,-92 90,-139 148,-165 38,-17 51,-18 114,-8 118,18 154,58 157,173 2,63 0,70 -28,97 -24,24 -38,30 -75,30 -61,0 -89,-33 -79,-94 6,-38 5,-40 -11,-27 -10,8 -29,37 -43,64 -45,90 -65,167 -70,275 -5,90 -4,102 11,102 22,0 31,-26 16,-45 -18,-21 -8,-120 14,-144 35,-38 185,-55 236,-26 14,8 28,14 33,15 4,0 7,-47 7,-104 0,-93 16,-207 36,-259 14,-39 62,-51 206,-54 81,-2 139,1 143,6 3,6 12,8 20,5 21,-8 30,22 16,53 -6,14 -30,46 -52,73 -35,42 -46,48 -90,54 -54,7 -69,26 -69,87 l 0,30 60,-2 c 33,-1 66,3 73,10 16,13 14,48 -6,106 -14,39 -16,40 -75,50 -34,6 -65,15 -70,20 -5,6 -7,31 -4,57 l 4,47 70,0 c 65,0 104,13 93,31 -3,5 -1,11 4,14 12,8 -1,54 -31,109 -21,38 -27,42 -68,45 -25,1 -94,9 -155,18 l -109,16 -32,-35 c -38,-41 -40,-86 -5,-135 11,-17 21,-41 21,-55 0,-14 4,-37 10,-51 5,-14 6,-27 2,-29 -9,-5 -42,30 -35,37 3,3 -6,11 -21,17 -15,7 -26,21 -27,33 0,32 -32,104 -63,142 -27,34 -111,84 -141,84 -58,0 -171,-106 -200,-188 -20,-55 -30,-238 -15,-277 7,-19 -5,-10 -45,32 -44,46 -54,63 -49,82 7,31 106,232 134,271 21,30 21,32 5,51 -22,23 -93,26 -134,5 -29,-15 -72,-61 -130,-137 l -33,-44 4,78 c 5,74 4,79 -20,97 -32,26 -46,25 -109,-4 -51,-24 -80,-57 -68,-77 4,-5 2,-16 -4,-23 -6,-7 -14,-70 -17,-140 l -7,-127 -22,83 c -12,46 -35,110 -51,143 -34,72 -127,169 -155,162 -11,-3 -22,-1 -25,4 -7,11 -25,11 -43,0 z m -395,-51 c 15,-6 49,-25 76,-42 39,-25 49,-38 53,-67 4,-20 8,-44 10,-54 5,-24 -27,-98 -50,-117 -22,-18 -45,-71 -45,-103 0,-14 9,-36 20,-50 13,-17 20,-40 20,-69 -1,-60 -34,-150 -62,-167 -13,-8 -34,-25 -48,-37 -34,-30 -100,-47 -135,-34 -14,5 -42,10 -61,10 -51,0 -71,14 -79,57 -4,21 -11,43 -17,50 -11,13 -15,311 -5,394 3,31 11,68 17,83 5,15 10,42 10,60 0,18 6,40 13,50 16,22 94,33 135,18 22,-8 37,-6 68,9 47,22 45,22 80,9 z m 469,-8 c 40,-25 95,-82 95,-99 0,-7 12,-31 26,-52 40,-61 64,-192 66,-351 2,-197 -4,-209 -85,-210 -56,0 -64,12 -55,82 20,170 21,273 3,383 -13,89 -21,115 -41,136 -27,29 -54,29 -92,0 -17,-13 -28,-41 -45,-116 -19,-86 -22,-127 -21,-287 l 2,-188 -37,-10 c -76,-21 -86,-9 -95,102 -7,87 -6,269 1,282 6,9 18,62 27,116 6,34 47,120 71,151 60,74 123,96 180,61 z m 400,-21 c -11,-45 -5,-135 11,-153 29,-31 54,-29 69,6 8,18 21,38 29,46 9,7 16,18 16,24 0,16 80,97 94,94 6,-1 23,5 39,12 36,17 44,7 21,-27 -25,-38 -64,-122 -64,-139 0,-8 -9,-22 -20,-31 -11,-10 -20,-27 -20,-38 0,-11 -6,-29 -14,-40 -22,-34 -15,-55 36,-97 26,-23 48,-47 48,-53 0,-7 9,-23 19,-37 14,-17 22,-49 27,-100 l 6,-75 -40,-42 -41,-43 -87,5 c -68,3 -93,1 -115,-11 -58,-34 -109,30 -129,163 -14,93 -17,352 -6,443 9,73 9,74 54,102 53,33 77,30 67,-9 z m 547,27 c 63,-33 113,-100 124,-167 3,-14 13,-33 24,-42 25,-22 60,-85 60,-109 0,-18 -7,-20 -72,-19 -106,1 -121,8 -133,53 -7,29 -6,44 6,65 22,38 10,73 -34,96 l -38,20 -24,-28 c -23,-25 -24,-34 -20,-115 4,-97 46,-271 69,-287 8,-6 18,-24 22,-39 7,-30 58,-86 79,-86 23,0 40,32 40,79 1,45 2,46 36,47 19,0 42,-6 52,-14 37,-32 11,-148 -38,-170 -38,-18 -99,-25 -140,-18 -37,7 -125,86 -125,112 0,8 -8,22 -19,33 -10,10 -35,67 -55,127 -34,104 -35,114 -29,204 3,52 11,106 18,120 7,14 19,38 26,53 7,16 26,35 41,43 15,8 32,23 38,34 12,23 55,27 92,8 z m -1796,-13 c 4,-8 0,-23 -7,-32 -8,-8 -12,-27 -11,-40 2,-13 -4,-45 -12,-71 -13,-39 -34,-121 -81,-324 -31,-135 -64,-198 -113,-217 -15,-6 -35,-16 -44,-23 -12,-9 -25,-9 -45,-2 -28,9 -31,16 -81,159 -26,72 -52,167 -52,188 0,12 -7,30 -15,41 -7,10 -17,42 -21,72 -3,29 -12,59 -20,65 -9,7 -14,31 -14,64 0,65 21,94 70,97 l 35,3 6,-68 c 4,-52 11,-73 30,-93 22,-24 29,-26 100,-22 95,4 112,17 130,100 8,35 20,63 29,66 8,3 28,16 43,29 33,26 65,30 73,8 z m 2209,-1 c 50,-3 99,-7 110,-10 21,-4 60,-75 53,-96 -3,-7 -31,-13 -69,-15 -94,-6 -109,-19 -109,-96 0,-77 22,-104 89,-112 24,-3 48,-8 53,-11 13,-8 39,-64 31,-65 -5,-1 -34,-3 -65,-4 -79,-2 -86,-11 -83,-96 3,-74 21,-110 54,-107 55,4 75,-4 117,-48 43,-44 50,-72 15,-59 -9,4 -60,6 -115,6 -54,-1 -113,4 -131,10 -41,15 -43,22 -56,264 -11,217 -23,297 -51,351 -33,65 -11,110 47,98 11,-3 61,-7 110,-10 z M 5460,1690 c -5,-29 -10,-69 -10,-89 0,-59 -13,-63 -37,-10 l -21,48 28,37 c 16,19 32,45 36,56 11,37 14,11 4,-42 z"
       id="path119"
       inkscape:connector-curvature="0" />
    <path
       d="m 5225,1912 c -3,-3 -23,-6 -43,-7 -32,0 -39,-4 -53,-35 -9,-19 -19,-68 -23,-107 -7,-70 -6,-74 20,-98 15,-14 31,-25 36,-25 20,0 75,34 106,66 32,34 36,48 32,113 -3,49 -54,114 -75,93 z m 35,-72 c 18,-33 -5,-91 -47,-122 -20,-16 -44,-28 -54,-28 -16,0 -18,7 -12,68 8,91 15,102 63,102 29,0 42,-5 50,-20 z"
       id="path121"
       inkscape:connector-curvature="0" />
    <path
       d="m 5123,1574 c -21,-21 -23,-32 -23,-114 0,-77 3,-93 20,-110 32,-32 65,-25 119,26 48,45 49,47 47,105 -2,82 -27,114 -91,115 -38,2 -53,-3 -72,-22 z m 91,-24 c 22,-8 26,-16 26,-47 0,-21 -8,-54 -19,-73 -18,-35 -57,-63 -73,-54 -4,3 -8,41 -8,84 0,65 3,81 18,89 22,13 25,13 56,1 z"
       id="path123"
       inkscape:connector-curvature="0" />
    <path
       d="m 6177,1634 c -21,-11 -25,-19 -18,-31 5,-9 6,-33 4,-54 -7,-48 13,-131 39,-164 17,-22 27,-25 78,-25 56,0 60,2 76,31 31,60 -3,174 -68,230 -37,32 -70,35 -111,13 z m 84,-54 c 24,-19 40,-44 48,-73 18,-64 12,-89 -24,-99 -42,-11 -62,-2 -67,30 -3,15 -6,32 -8,37 -6,22 1,135 8,135 4,0 24,-13 43,-30 z"
       id="path125"
       inkscape:connector-curvature="0" />
    <path
       d="m 4625,1701 c -33,-14 -59,-49 -47,-63 5,-7 18,-44 27,-83 9,-38 23,-80 31,-93 14,-21 16,-21 39,-6 24,16 29,29 54,137 15,64 14,74 -9,97 -21,21 -60,25 -95,11 z m 53,-40 c 11,-6 11,-20 1,-75 -13,-71 -29,-83 -35,-26 -2,19 -7,42 -11,50 -10,23 -12,43 -7,52 7,10 35,10 52,-1 z"
       id="path127"
       inkscape:connector-curvature="0" />
    <path
       d="m 7750,2017 c -56,-28 -74,-44 -129,-117 l -64,-85 5,97 c 5,92 4,98 -17,112 -19,13 -26,12 -61,-4 -21,-10 -57,-36 -79,-59 l -40,-42 0,-187 c 0,-213 7,-287 35,-398 27,-107 69,-139 128,-98 12,8 27,12 33,8 7,-4 53,-8 103,-10 82,-2 95,0 128,22 53,34 82,94 82,169 -1,74 -27,132 -90,200 l -46,50 17,50 c 20,59 98,218 127,257 46,65 -30,85 -132,35 z m 83,-34 c -4,-10 -15,-24 -25,-31 -10,-7 -18,-20 -18,-28 0,-8 -22,-61 -50,-118 -52,-108 -54,-122 -20,-187 7,-13 16,-31 20,-39 4,-8 17,-14 28,-14 14,1 24,-7 30,-25 39,-111 43,-168 12,-196 -11,-10 -22,-26 -25,-35 -11,-35 -146,-57 -158,-26 -4,10 -18,12 -54,9 -26,-3 -52,-9 -57,-14 -26,-24 -45,-8 -64,54 -37,115 -46,188 -46,373 -1,200 4,220 60,254 42,27 58,26 49,-2 -8,-27 -8,-30 -1,-92 12,-98 51,-134 82,-74 9,18 30,45 45,61 16,16 29,34 29,41 0,15 72,75 110,93 39,18 61,16 53,-4 z"
       id="path129"
       inkscape:connector-curvature="0" />
    <path
       d="m 7546,1641 c -9,-10 -18,-37 -19,-62 -2,-62 12,-170 24,-185 6,-7 32,-20 59,-29 48,-16 50,-16 80,6 16,13 30,28 31,33 7,78 6,92 -11,127 -18,34 -120,129 -139,129 -5,0 -16,-8 -25,-19 z m 90,-85 c 39,-38 44,-49 44,-88 0,-51 -13,-68 -52,-68 -36,0 -48,29 -55,128 -5,87 2,90 63,28 z"
       id="path131"
       inkscape:connector-curvature="0" />
    <path
       d="m 7745,1491 c -7,-12 12,-24 25,-16 11,7 4,25 -10,25 -5,0 -11,-4 -15,-9 z"
       id="path133"
       inkscape:connector-curvature="0" />
  </g>
  <g
     id="layer4"
     style="fill:#f58738;stroke:none"
     transform="translate(-27.948665,2955.2766)">
    <path
       d="m 2757,2004 c -28,-18 -38,-33 -42,-62 -3,-20 -10,-59 -15,-87 -5,-27 -11,-59 -13,-70 -1,-12 -10,-20 -22,-20 -32,0 -55,61 -56,146 -2,97 -12,109 -95,109 -58,0 -64,-2 -84,-30 -12,-17 -25,-56 -30,-88 -4,-32 -15,-80 -24,-106 -9,-25 -16,-58 -16,-72 0,-14 -9,-60 -19,-102 -11,-43 -23,-99 -27,-127 -3,-27 -10,-54 -14,-60 -14,-18 -20,-113 -10,-140 18,-48 130,-74 162,-37 10,11 17,47 21,103 6,88 35,192 61,218 13,12 16,10 22,-14 4,-16 13,-40 20,-54 8,-14 14,-36 14,-49 0,-13 4,-42 10,-65 5,-23 11,-67 12,-97 3,-49 5,-55 27,-58 39,-6 90,8 100,26 5,9 14,64 20,122 11,103 28,150 56,150 16,0 22,-15 34,-95 11,-69 30,-126 62,-179 22,-37 23,-38 68,-31 67,9 80,14 92,36 8,16 4,31 -20,75 -43,80 -134,491 -132,600 0,53 -23,76 -83,79 -33,3 -52,-2 -79,-21 z"
       id="path136"
       inkscape:connector-curvature="0" />
    <path
       d="m 5226,2011 c -31,-15 -46,-17 -68,-9 -82,29 -168,-16 -168,-87 0,-18 -5,-46 -10,-61 -18,-46 -24,-131 -22,-304 1,-128 4,-172 16,-195 9,-17 16,-38 16,-47 0,-27 48,-58 91,-58 21,0 50,-5 64,-10 36,-14 100,4 142,39 18,14 45,36 60,48 58,44 82,214 38,263 -24,26 -13,84 23,119 42,41 61,100 51,160 -4,28 -11,55 -14,61 -15,24 -148,101 -173,100 -4,-1 -25,-9 -46,-19 z m 54,-191 c 1,-19 2,-45 1,-57 -1,-25 -53,-77 -94,-94 -23,-10 -31,-9 -48,7 -18,16 -19,26 -14,84 4,36 12,80 18,98 10,29 15,33 37,28 14,-2 32,-1 40,4 23,14 58,-28 60,-70 z m -27,-267 c 8,-16 14,-49 13,-75 -2,-80 -92,-158 -134,-116 -18,18 -16,182 2,201 8,7 35,14 60,15 40,2 47,-1 59,-25 z"
       id="path138"
       inkscape:connector-curvature="0" />
    <path
       d="m 5655,2006 c -16,-13 -34,-24 -38,-24 -21,-2 -104,-150 -113,-202 -9,-55 -21,-107 -27,-116 -7,-13 -8,-195 -1,-283 2,-35 11,-79 19,-99 15,-34 16,-35 62,-28 90,12 88,7 88,222 0,194 18,330 50,380 18,28 60,36 79,15 18,-21 46,-197 46,-292 0,-41 -4,-101 -9,-134 -6,-33 -11,-84 -13,-114 -3,-47 0,-54 17,-58 89,-21 139,-10 156,34 7,16 11,90 10,173 0,169 -24,298 -65,361 -14,21 -26,45 -26,53 0,7 -18,32 -40,55 -81,83 -140,100 -195,57 z"
       id="path140"
       inkscape:connector-curvature="0" />
    <path
       d="m 6105,1997 c -27,-18 -52,-39 -56,-47 -29,-59 -33,-347 -8,-520 21,-139 85,-215 149,-178 21,12 46,15 104,11 95,-6 124,5 166,63 31,44 32,47 25,119 -4,50 -13,82 -26,99 -10,13 -19,29 -19,34 0,6 -22,29 -49,52 -55,47 -57,71 -10,150 10,16 20,38 52,115 12,28 30,62 41,77 33,46 -3,78 -49,44 -11,-8 -25,-12 -31,-9 -14,5 -114,-95 -114,-114 0,-7 -9,-17 -20,-23 -11,-6 -20,-20 -20,-30 0,-20 -33,-29 -44,-12 -5,9 -7,98 -4,151 4,52 -27,58 -87,18 z m 175,-390 c 51,-46 85,-161 61,-206 -10,-17 -21,-21 -67,-21 -54,0 -55,1 -71,38 -20,46 -27,193 -10,204 23,14 62,7 87,-15 z"
       id="path142"
       inkscape:connector-curvature="0" />
    <path
       d="m 6617,2003 c -14,-16 -36,-35 -49,-44 -13,-9 -29,-29 -37,-45 -7,-16 -19,-40 -26,-54 -7,-14 -15,-68 -18,-120 -6,-90 -5,-100 30,-205 19,-60 44,-119 54,-131 11,-11 19,-26 19,-33 0,-6 24,-36 53,-66 59,-59 96,-72 170,-61 68,11 108,37 123,82 33,94 7,154 -69,160 -38,3 -48,1 -57,-16 -6,-11 -8,-25 -4,-31 10,-16 -6,-79 -20,-79 -17,0 -52,40 -61,70 -4,14 -15,34 -25,45 -44,50 -86,339 -56,380 12,16 17,17 44,6 36,-15 44,-45 23,-79 -11,-18 -12,-34 -5,-70 8,-42 13,-48 44,-59 46,-16 173,-16 188,-1 15,15 16,54 2,63 -5,3 -10,15 -10,25 0,10 -13,29 -30,43 -16,14 -31,36 -34,50 -8,45 -54,122 -87,147 -80,59 -122,65 -162,23 z"
       id="path144"
       inkscape:connector-curvature="0" />
    <path
       d="m 7800,2013 c -47,-16 -150,-97 -150,-117 0,-7 -12,-23 -26,-37 -14,-13 -32,-36 -40,-51 -8,-16 -18,-28 -23,-28 -10,0 -21,36 -27,95 -6,50 -6,54 2,87 14,60 -72,39 -125,-31 l -26,-35 1,-190 c 1,-197 12,-278 52,-396 20,-60 38,-71 79,-49 19,10 35,10 82,1 31,-7 72,-12 89,-12 45,0 98,24 112,50 6,12 20,30 31,41 32,32 24,118 -20,209 -12,26 -22,35 -39,34 -15,-1 -22,4 -22,17 0,10 -4,20 -10,24 -5,3 -14,22 -19,42 -10,33 -6,45 39,140 28,56 50,109 50,118 0,8 5,14 12,13 15,-4 44,70 32,82 -5,5 -28,2 -54,-7 z m -173,-414 c 26,-23 56,-56 65,-74 23,-43 18,-110 -10,-137 -19,-20 -21,-20 -71,-3 -40,13 -51,21 -52,38 -1,12 -3,33 -5,47 -8,49 -8,146 0,158 11,19 21,15 73,-29 z"
       id="path146"
       inkscape:connector-curvature="0" />
    <path
       d="m 3154,1991 c -82,-59 -77,-40 -71,-323 3,-139 11,-283 18,-320 14,-80 31,-96 111,-100 l 53,-3 0,148 c 0,120 3,149 15,157 18,12 90,13 107,2 23,-15 35,-68 40,-177 5,-131 15,-149 66,-123 17,9 41,18 52,20 11,2 30,22 44,47 l 24,43 -17,112 c -10,61 -22,125 -26,141 -5,17 -14,70 -20,120 -6,49 -16,95 -23,103 -6,8 -10,39 -10,70 1,45 -3,62 -19,80 -33,34 -54,27 -98,-32 -32,-45 -38,-59 -31,-78 4,-13 11,-53 15,-89 5,-57 4,-68 -13,-83 -15,-14 -27,-16 -57,-10 -22,5 -42,7 -46,6 -21,-5 -30,48 -27,163 3,93 1,126 -10,138 -19,23 -32,21 -77,-12 z"
       id="path148"
       inkscape:connector-curvature="0" />
    <path
       d="m 4020,1994 c -50,-27 -90,-70 -90,-96 0,-24 -32,-88 -44,-89 -6,-1 -35,-3 -64,-4 -47,-2 -54,0 -71,24 -10,14 -21,51 -25,81 -4,30 -15,65 -24,78 l -18,23 -34,-23 c -26,-18 -40,-38 -54,-80 l -19,-57 23,-73 c 12,-40 26,-77 30,-83 4,-5 13,-34 19,-64 6,-29 25,-87 41,-128 17,-41 30,-81 30,-89 0,-45 76,-174 102,-174 4,0 32,11 62,25 79,36 112,82 118,168 3,37 10,73 16,80 5,6 13,41 16,77 4,36 14,79 21,95 21,45 54,223 59,310 1,29 -40,29 -94,-1 z m -136,-310 c 20,-8 21,-43 2,-70 -8,-11 -15,-38 -17,-59 -7,-86 -42,-93 -58,-12 -18,95 -19,125 -8,136 12,12 56,15 81,5 z"
       id="path150"
       inkscape:connector-curvature="0" />
    <path
       d="m 4852,1995 c -17,-14 -34,-25 -39,-25 -19,0 -40,-36 -53,-93 -16,-69 -29,-77 -124,-77 -79,0 -87,9 -95,100 -4,38 -12,75 -18,81 -18,18 -81,-1 -108,-33 -20,-23 -25,-41 -25,-82 0,-28 6,-60 14,-71 7,-11 17,-40 21,-65 4,-25 13,-58 20,-75 7,-16 16,-41 19,-55 13,-61 46,-171 56,-190 6,-12 18,-43 26,-70 8,-29 25,-57 41,-69 27,-22 68,-28 78,-11 4,6 21,16 38,24 65,28 100,90 132,231 28,130 68,290 81,328 9,26 14,59 12,72 -3,14 1,30 8,36 20,16 17,47 -5,59 -30,15 -47,12 -79,-15 z m -141,-321 c 10,-12 10,-25 1,-62 -6,-26 -13,-63 -17,-83 -3,-20 -14,-44 -24,-53 -18,-17 -20,-15 -35,37 -9,30 -16,61 -16,69 0,7 -7,26 -15,42 -17,32 -13,43 19,56 34,14 72,11 87,-6 z"
       id="path152"
       inkscape:connector-curvature="0" />
    <path
       d="m 6990,2013 c -8,-3 -25,-14 -37,-25 -23,-21 -20,-51 10,-99 21,-35 35,-140 46,-344 5,-99 13,-198 18,-220 12,-59 50,-74 183,-74 58,0 112,-2 121,-6 9,-3 23,3 34,15 18,20 17,21 -37,75 -39,39 -63,55 -84,56 -16,1 -36,2 -46,3 -26,2 -30,10 -33,85 -3,79 -10,73 87,75 62,2 73,13 54,57 -18,41 -42,57 -97,64 -61,8 -69,18 -69,91 0,72 -1,71 101,78 31,2 62,6 68,10 16,10 14,61 -4,76 -8,7 -15,19 -15,26 0,27 -45,42 -145,47 -55,4 -109,8 -120,11 -11,3 -27,2 -35,-1 z"
       id="path154"
       inkscape:connector-curvature="0" />
    <path
       d="m 4212,1961 -53,-51 -1,-92 c 0,-51 4,-111 10,-133 6,-22 13,-85 17,-139 3,-55 9,-104 11,-108 3,-5 -10,-15 -30,-23 -30,-13 -38,-13 -62,0 -15,8 -31,12 -35,9 -17,-10 -20,-71 -6,-105 23,-55 70,-66 305,-69 73,-1 128,2 134,8 16,16 -13,83 -42,95 -97,38 -110,50 -110,100 0,22 -5,67 -10,101 -6,33 -14,149 -18,256 l -7,195 -25,3 c -20,2 -39,-10 -78,-47 z"
       id="path156"
       inkscape:connector-curvature="0" />
  </g>
</svg>
